<svg xmlns="http://www.w3.org/2000/svg" width="252" height="43" viewBox="0 0 252 43" fill="none">
<path d="M158.714 15.4378C155.589 15.4378 153.551 17.6483 153.551 20.9976C153.551 24.3469 155.589 26.5574 158.714 26.5574C161.84 26.5574 163.878 24.3469 163.878 20.9976C163.878 17.6483 161.84 15.4378 158.714 15.4378ZM158.714 24.3469C156.88 24.3469 156.269 22.6722 156.269 20.9976C156.269 19.323 156.812 17.5813 158.714 17.5813C160.617 17.5813 161.16 19.256 161.16 20.9976C161.16 22.6722 160.617 24.3469 158.714 24.3469Z" fill="#0073B8"/>
<path d="M170.469 26.2895L174.002 15.7057H171.012L168.906 23.4761L166.8 15.7057H163.81L167.343 26.2895H170.469Z" fill="#0073B8"/>
<path d="M147.64 39.0837C151.309 39.0837 152.6 36.7392 152.6 33.9258V26.2895H151.377V33.6579C151.377 36.8062 150.086 38.012 147.708 38.012C145.262 38.012 143.971 36.8062 144.039 33.6579V26.2895H142.68V33.9928C142.68 36.7392 143.971 39.0837 147.64 39.0837Z" fill="#0073B8"/>
<path d="M165.916 29.0359H164.693V38.8158H165.916V29.0359Z" fill="#0073B8"/>
<path d="M172.507 38.8158L176.38 29.0359H175.021L171.827 37.61L168.634 29.0359H167.275L171.148 38.8158H172.507Z" fill="#0073B8"/>
<path d="M202.266 29.0359H201.043V38.8158H202.266V29.0359Z" fill="#0073B8"/>
<path d="M187.658 20.6627C187.658 18.5191 188.27 17.6483 189.764 17.6483C191.055 17.6483 191.531 18.5191 191.531 20.2608V26.3565H194.249V19.8589C194.249 17.2464 193.501 15.5048 190.58 15.5048C189.425 15.5048 188.134 16.1077 187.454 17.2464V15.7727H184.872V26.3565H187.658V20.6627Z" fill="#0073B8"/>
<path d="M198.801 13.0933L196.015 14.0311V15.7057H194.996V17.6483H196.015V23.1411C196.015 25.6866 197.442 26.4234 199.14 26.4234C199.616 26.4234 200.16 26.4234 200.635 26.3565V24.0789C200.363 24.1459 200.16 24.1459 199.888 24.1459C198.937 24.1459 198.733 23.878 198.733 21.9354V17.7153H200.635V15.7727H198.733V13.0933H198.801Z" fill="#0073B8"/>
<path d="M155.725 38.8158V33.122C155.793 31.1794 156.948 29.7727 158.85 29.7727C160.821 29.7727 161.364 31.0455 161.364 32.7201V38.8158H162.587V32.5191C162.587 30.1746 161.568 28.7679 158.918 28.7679C157.559 28.7679 156.065 29.6388 155.589 30.7775V29.0359H154.434V38.8158H155.725Z" fill="#0073B8"/>
<path d="M188.473 38.8158V33.5909C188.473 31.5813 189.832 29.9067 192.21 29.9067V28.701C190.308 28.701 189.017 29.7057 188.405 31.3134V29.0359H187.25V38.8158H188.473Z" fill="#0073B8"/>
<path d="M193.977 31.3134C193.977 30.0407 195.132 29.7057 196.491 29.7057C197.238 29.7057 198.189 29.9067 198.937 30.3086V29.1699C197.985 28.9019 196.898 28.7679 196.355 28.7679C194.52 28.7679 192.754 29.4378 192.754 31.3804C192.754 34.5287 198.257 33.9258 198.257 36.3373C198.257 37.61 196.898 38.1459 195.607 38.1459C194.588 38.1459 193.569 37.878 192.754 37.4761V38.6818C193.705 39.0167 194.724 39.0837 195.675 39.0837C197.306 39.0837 199.48 38.3469 199.48 36.2703C199.48 32.9211 193.977 33.256 193.977 31.3134Z" fill="#0073B8"/>
<path d="M213.612 38.8158C212.661 41.0933 211.506 42.299 210.079 42.5L209.672 41.5622C211.166 41.3612 211.914 39.9545 212.389 38.8158H211.71L208.177 29.9737H206.139V36.0024C206.139 37.0742 206.207 37.945 207.022 37.945C207.226 37.945 207.633 37.945 207.973 37.945V38.9498C207.633 38.9498 207.226 38.9498 206.954 38.9498C205.391 38.9498 204.848 37.945 204.848 36.0694V30.0407H203.557V29.1029H204.848V26.9593H206.071V29.1029H209.128L212.661 38.012L216.262 29.0359H217.621L213.612 38.8158Z" fill="#0073B8"/>
<path d="M214.767 15.7057L212.253 23.4091L209.672 15.7057H207.362C205.459 15.7057 204.712 16.7775 204.372 17.6483V15.7057H201.79V26.2895H204.576V21.5335C204.576 19.189 205.527 18.1172 207.497 18.0502L210.351 26.2225H211.438C211.03 27.4952 210.759 28.0981 210.147 28.5L211.03 30.7775C212.389 30.3756 213.476 28.1651 214.02 26.5574L217.689 15.5718H214.767V15.7057Z" fill="#0073B8"/>
<path d="M150.629 21.9354C150.222 23.2081 149.27 24.0789 147.844 24.0789C145.262 24.0789 144.243 21.8014 144.243 19.5239C144.243 17.1794 145.194 14.9019 147.844 14.9019C149.202 14.9019 150.425 15.8397 150.697 17.1124L153.347 16.2416C152.6 13.7632 150.425 12.4234 147.912 12.4234C143.835 12.4234 141.457 15.5718 141.457 19.5909C141.457 23.4761 143.835 26.6244 147.912 26.6244C150.493 26.6244 152.532 25.2177 153.347 22.8732L150.629 21.9354Z" fill="#0073B8"/>
<path d="M181.068 23.2751C180.728 23.811 179.981 24.3469 179.029 24.3469C177.467 24.3469 176.651 23.5431 176.583 21.6675H183.785C183.989 18.4522 182.359 15.3708 178.893 15.3708C175.836 15.3708 173.798 17.7823 173.798 20.9306C173.798 24.2129 175.768 26.4904 178.893 26.4904C180.796 26.4904 182.291 25.6866 183.174 23.945L181.068 23.2751ZM178.826 17.5813C180.184 17.5813 180.796 18.3852 181 19.8589H176.515C176.583 19.055 177.127 17.5813 178.826 17.5813Z" fill="#0073B8"/>
<path d="M183.989 36.2703C183.514 37.4091 182.562 38.0789 181.068 38.0789C178.69 38.0789 177.806 36.0024 177.738 34.2608H185.484C185.552 31.5144 184.329 28.7679 181.068 28.7679C177.874 28.7679 176.515 31.3804 176.515 33.9258C176.515 36.7392 177.874 39.0837 181.068 39.0837C183.174 39.0837 184.397 38.2129 185.076 36.6053L183.989 36.2703ZM181.136 29.7727C183.106 29.7727 184.261 31.4474 184.329 33.256H177.874C178.01 31.4474 179.097 29.7727 181.136 29.7727Z" fill="#0073B8"/>
<path d="M248.535 28.0311C249.214 26.2225 249.146 26.0885 249.35 25.1507C251.524 24.012 252 21.2655 252 20.9976C251.932 20.1938 252 20.6627 251.932 20.9306C251.66 21.7344 250.913 22.6722 250.233 23.2081C250.03 23.3421 249.826 23.4761 249.622 23.61C249.69 22.8732 250.505 18.1172 248.603 14.433C249.214 16.2416 248.399 18.3182 247.244 19.6579C247.244 19.39 246.768 14.634 244.662 12.2225L244.458 12.0215C244.798 12.5574 245.206 15.4378 243.439 18.2512C242.556 19.5239 241.401 20.6627 240.382 21.8014C239.431 23.0072 238.955 24.1459 239.431 26.2225C239.566 26.7584 239.838 27.6292 240.11 27.8301C240.246 27.8971 240.246 27.6962 240.178 27.5622C239.906 27.0263 239.499 24.8158 242.012 22.0024C246.225 17.2464 245.07 13.0933 245.07 13.0933C245.749 13.7632 246.836 17.7153 246.972 19.8589C245.681 21.3325 240.993 24.6148 241.673 27.2273C241.741 27.5622 241.877 27.8971 242.08 28.1651C241.469 29.1699 241.265 29.8397 241.605 30.8445C240.654 31.5813 239.634 32.5861 239.227 33.7919C238.479 34.0598 237.732 34.3947 237.121 34.9976C236.849 34.7297 236.645 34.4617 236.373 34.2608C236.577 34.1268 238.479 33.189 239.159 32.3852C239.906 31.6483 240.314 30.6435 240.042 29.5048C239.566 27.5622 235.082 24.9498 236.033 23.811C236.509 23.2081 237.664 22.9402 238.276 23.3421C238.344 23.3421 238.411 23.4091 238.411 23.4761C238.683 23.0742 239.023 21.9354 237.256 22.0024C237.121 21.6675 236.713 21.5335 236.305 21.4665C235.218 21.3995 234.131 21.8684 233.723 22.8062C233.18 24.012 234.743 26.6244 234.607 28.299C234.675 29.7727 231.685 30.7105 231.753 28.433C231.753 27.4282 234.199 24.6818 231.957 21.4665C231.142 20.3947 230.122 19.39 229.307 18.3182C226.25 14.5 228.084 11.6866 228.016 11.6866C225.027 15.4378 225.774 18.5191 225.638 18.3852C225.434 18.0502 223.804 16.1077 224.619 13.5622C224.619 13.5622 222.785 15.8397 223.124 22.3373C222.785 22.1364 220.882 20.4617 220.95 19.189C220.95 19.189 220.475 22.0024 223.192 24.012C223.396 25.0167 223.464 25.8876 223.804 26.9593C222.785 26.6244 221.154 25.4187 220.61 24.2799C220.542 24.0789 220.95 26.8254 224.143 28.433C226.725 32.7871 229.647 31.6483 230.258 31.0455C231.074 31.3804 232.297 33.122 232.365 33.323C230.666 32.7871 227.88 32.1842 225.706 32.1172C224.483 30.9115 221.765 28.366 220.61 29.6388C219.387 31.1794 223.668 32.988 225.978 33.256C226.589 33.8589 227.473 34.7297 228.084 35.4665C227.405 35.6005 227.269 35.6675 226.318 36.0024C223.056 33.39 222.581 35.1986 222.581 35.1986C222.105 37.3421 226.25 37.2081 226.725 37.0742C227.948 38.2799 229.715 38.4139 230.53 38.1459C231.821 39.2847 233.112 39.2177 233.52 39.1507C234.878 42.2321 237.256 40.7584 237.8 39.2847C239.023 39.6196 239.974 39.1507 240.857 38.4809C241.469 38.6818 243.167 38.9498 244.73 37.677C248.739 38.4139 249.146 36.3373 249.011 35.9354C248.399 34.7297 245.953 36.0694 245.274 36.6722C244.594 36.4043 244.255 36.2034 243.575 36.0024C244.255 35.2655 245.07 34.5957 245.817 33.9258C253.97 33.323 252.611 26.8923 246.225 32.8541C244.322 32.8541 241.469 33.055 239.499 33.5909C239.499 33.4569 240.721 31.8493 241.809 31.4474C243.779 33.189 246.768 31.4474 248.059 29.2368C250.03 28.5 251.321 27.0933 251.796 25.6196L251.864 25.3517C251.524 26.2895 250.098 27.6292 248.535 28.0311ZM220.882 29.9067C221.698 28.7679 224.347 31.2464 225.163 32.1842C224.687 32.1172 220.135 31.1794 220.882 29.9067ZM222.785 35.3995C222.988 34.1268 225.502 35.6675 226.046 36.2033C225.231 36.6053 222.853 36.6053 222.785 35.3995ZM248.943 36.2703C249.078 36.7392 247.584 37.878 245.681 36.9402C247.516 35.6005 248.807 35.6005 248.943 36.2703ZM251.185 30.9115C252 31.9833 248.399 32.988 246.768 32.988C246.836 32.988 250.098 29.8397 251.185 30.9115ZM238.955 34.5287C238.887 34.9306 238.887 35.1316 238.887 35.8014C238.479 35.9354 238.072 36.0024 237.732 36.2703C237.596 35.9354 237.392 35.6005 237.188 35.3325C237.188 35.3325 238.072 34.7297 238.955 34.5287ZM225.774 20.9306C226.453 22.0024 231.142 25.4856 230.19 27.5622C229.035 25.9545 226.182 24.4809 226.046 24.3469C225.842 23.2751 225.774 22.0694 225.774 20.9306ZM229.783 28.0311C229.647 28.1651 227.337 29.1699 226.386 26.1555C227.473 26.6244 228.899 27.2273 229.783 28.0311ZM224.008 15.7727C223.94 16.4426 224.008 18.0502 225.502 20.5287C225.434 21.7344 225.502 22.9402 225.706 24.0789C224.891 23.677 224.211 23.2081 223.464 22.7392C223.328 21.7344 223.464 16.8445 224.008 15.7727ZM224.619 28.7679C225.842 29.1699 229.579 30.9115 229.919 31.0455C229.511 31.4474 227.065 32.3182 224.619 28.7679ZM230.394 30.3086C228.899 29.2368 226.521 28.0981 224.143 27.2273C223.94 26.6914 223.532 24.6818 223.532 24.3469C224.211 24.8828 225.231 25.4856 226.046 25.8876C227.133 29.3708 229.443 28.433 229.987 28.0981C230.53 28.7679 230.666 29.5048 230.394 30.3086ZM230.598 30.5096C231.006 29.5048 230.802 28.7679 230.326 27.8301C231.821 25.8876 229.919 23.2751 228.56 21.9354C227.88 21.1986 226.182 19.3899 226.046 19.189C225.706 16.1077 227.269 13.3612 227.405 13.0933C226.657 14.701 226.25 16.9785 230.598 22.2034C231.345 23.1411 232.432 24.2129 232.365 25.5526C232.365 26.7584 231.345 27.7632 231.481 28.9019C231.617 29.6388 232.025 30.2416 232.84 30.4426C233.723 30.5766 234.403 30.3756 234.946 29.7727C236.713 27.5622 233.995 25.8876 233.995 23.677C233.995 22.8062 234.471 22.3373 235.218 22.0694C235.762 21.9354 236.441 21.7345 236.849 22.2034C236.713 22.2034 236.373 22.2703 236.033 22.4713C235.965 22.4043 235.898 22.3373 235.83 22.3373C235.694 22.3373 235.558 22.4713 235.558 22.6053C235.558 22.6722 235.558 22.6722 235.558 22.7392C235.626 22.8062 235.694 22.9402 235.83 22.8732C235.898 22.8732 235.965 22.8062 236.033 22.8062C236.373 22.6053 236.781 22.5383 236.985 22.4713C238.615 22.3373 238.14 23.2081 238.14 23.2081C238.14 23.2081 236.849 22.5383 235.626 23.677C233.791 25.6866 242.216 29.6388 235.898 34.1268C235.626 33.9258 234.81 33.39 234.267 33.122C234.199 33.189 234.199 33.256 234.131 33.256C234.675 33.5239 235.218 33.8589 235.626 34.1938C235.218 34.4617 235.014 34.6627 234.743 34.9306C234.199 34.3947 233.52 33.9258 232.704 33.5909C232.365 32.3852 231.549 31.3804 230.598 30.5096ZM232.84 34.2608C233.452 34.3947 234.063 34.8636 234.607 35.1986C234.267 35.5335 234.199 35.7344 233.995 36.0694C233.655 35.8014 233.452 35.7344 232.84 35.5335C232.908 35.1316 232.908 34.6627 232.84 34.2608ZM226.521 33.4569C227.88 33.5909 231.617 33.8589 232.5 34.1938C232.636 34.5957 232.636 35.1316 232.568 35.4665C231.277 35.1316 229.715 35.1316 228.424 35.4665C228.424 35.4665 227.133 34.0598 226.521 33.4569ZM227.133 37.1411C227.269 37.1411 228.424 36.8732 228.967 36.7392C229.375 37.1411 229.919 37.61 230.326 38.012C230.394 38.012 228.424 38.3469 227.133 37.1411ZM229.307 36.6722C230.326 36.4043 231.413 36.0024 232.5 36.0024C232.5 36.1364 231.617 37.5431 230.666 37.945C230.19 37.5431 229.307 36.6722 229.307 36.6722ZM233.587 38.9498C232.568 39.0837 231.549 38.6148 230.87 38.0789C232.297 37.2751 232.704 36.0694 232.84 36.0024C233.248 36.0694 233.587 36.2033 233.927 36.3373C233.52 37.0072 233.248 38.0789 233.587 38.9498ZM234.063 36.5383C235.286 37.677 234.267 38.6148 233.927 38.8828C233.927 38.8828 233.587 37.744 234.063 36.5383ZM234.063 39.0837C235.694 37.878 234.81 36.8062 234.199 36.2703C234.335 36.0024 234.471 35.7345 234.81 35.4665C235.15 35.8014 235.286 36.2703 235.354 36.7392C235.422 36.7392 235.422 36.7392 235.558 36.7392C235.558 36.2033 235.354 35.6005 235.014 35.1986C235.218 34.9976 235.83 34.5287 235.965 34.4617C236.237 34.7297 236.509 34.9306 236.781 35.2655C236.781 35.2655 236.101 35.9354 236.101 36.7392H236.305C236.373 36.3373 236.373 36.0694 236.917 35.4665C237.121 35.7345 237.324 36.0024 237.46 36.3373C237.121 36.6053 235.694 37.811 237.46 39.1507C235.626 41.9641 234.063 39.2177 234.063 39.0837ZM237.596 39.0167C236.169 37.811 237.46 36.8062 237.596 36.6722C237.8 37.3421 237.8 38.3469 237.596 39.0167ZM237.936 39.1507C238.208 38.3469 238.208 37.4091 237.868 36.5383C237.936 36.5383 238.615 36.2703 238.955 36.2703C239.566 37.878 240.654 38.4139 240.789 38.4809C239.974 39.0837 238.887 39.4187 237.936 39.1507ZM240.925 38.3469C240.925 38.3469 239.77 37.744 239.227 36.2703C240.246 36.3373 241.401 36.8732 242.352 37.1411C242.352 37.1411 241.333 37.945 240.925 38.3469ZM244.458 37.744C243.779 38.3469 242.42 38.7488 241.129 38.4139L242.624 37.2751C243.235 37.4761 243.847 37.61 244.458 37.744ZM245.342 34.1268C244.73 34.7297 243.915 35.3995 243.303 36.0694C242.012 35.6675 240.518 35.5335 239.159 35.7344C239.159 35.2655 239.159 34.8636 239.363 34.4617C241.197 34.0598 243.371 34.1938 245.342 34.1268ZM247.312 21.3325C247.652 20.9306 248.331 19.7249 248.467 19.4569C249.011 18.1842 249.011 16.7775 249.011 16.2416C249.214 16.7775 249.282 17.3804 249.35 17.9833C249.622 19.8589 249.486 21.8014 249.214 23.744C248.467 24.2129 247.652 24.5478 246.836 24.9498C247.176 23.744 247.38 22.6053 247.312 21.3325ZM247.04 21.6675C246.972 22.8732 246.836 23.945 246.497 25.0167C246.089 25.2847 242.896 26.8254 242.148 28.0311C241.401 25.7536 245.817 23.2081 247.04 21.6675ZM246.089 26.8254C245.817 27.4952 245.342 28.2321 244.73 28.567C244.119 28.9689 243.099 28.9019 242.488 28.5C243.439 27.7632 244.934 27.2943 246.089 26.8254ZM242.148 31.5144C243.779 30.8445 245.953 30.1077 247.584 29.5718C246.904 30.7775 244.051 33.055 242.148 31.5144ZM248.059 28.1651C246.497 28.634 244.934 29.1699 243.439 29.8397C242.828 30.1077 242.284 30.4426 241.741 30.7775C241.537 29.9737 241.741 29.1029 242.352 28.634C242.828 28.9689 243.371 29.1699 244.051 29.0359C245.274 28.9019 246.021 27.7632 246.497 26.6244C247.38 26.2225 248.263 25.8206 249.078 25.2847C248.943 26.2225 248.603 27.1603 248.263 28.0311C248.195 28.1651 248.195 28.1651 248.059 28.1651Z" fill="#0073B8"/>
<path d="M141.321 0.5H142.272V1.37081H141.321V0.5ZM141.321 1.9067H142.272V5.59091H141.321V1.9067Z" fill="#0073B8"/>
<path d="M145.737 5.52392V3.64833C145.737 3.24641 145.737 2.97847 145.669 2.91148C145.602 2.77751 145.534 2.71053 145.466 2.64354C145.398 2.57656 145.262 2.57655 145.126 2.57655C144.99 2.57655 144.786 2.64354 144.65 2.71053C144.514 2.77751 144.446 2.91148 144.379 3.04545C144.311 3.17943 144.311 3.44737 144.311 3.91627V5.59091H143.359V1.9067H144.243V2.44258C144.582 2.04067 144.99 1.83971 145.466 1.83971C145.669 1.83971 145.873 1.9067 146.077 1.97368C146.281 2.04067 146.417 2.17464 146.485 2.24163C146.553 2.3756 146.621 2.50957 146.689 2.64354C146.757 2.77751 146.757 2.97847 146.757 3.3134V5.52392H145.737Z" fill="#0073B8"/>
<path d="M152.871 2.97847L151.92 3.17943C151.92 2.97847 151.784 2.8445 151.716 2.77751C151.58 2.71053 151.445 2.64354 151.241 2.64354C150.969 2.64354 150.833 2.71053 150.629 2.91148C150.493 3.04545 150.425 3.38038 150.425 3.71531C150.425 4.11722 150.493 4.45215 150.629 4.65311C150.765 4.85407 150.969 4.92105 151.241 4.92105C151.445 4.92105 151.58 4.85407 151.716 4.78708C151.852 4.65311 151.92 4.51914 151.988 4.2512L152.939 4.38517C152.871 4.85407 152.668 5.12201 152.396 5.38995C152.124 5.59091 151.716 5.72488 151.241 5.72488C150.697 5.72488 150.29 5.52392 149.95 5.18899C149.61 4.85407 149.474 4.38517 149.474 3.7823C149.474 3.17943 149.61 2.71053 149.95 2.3756C150.29 2.04067 150.697 1.83971 151.241 1.83971C151.716 1.83971 152.056 1.9067 152.328 2.10766C152.6 2.30861 152.803 2.57656 152.871 2.97847Z" fill="#0073B8"/>
<path d="M153.415 3.64833C153.415 3.3134 153.483 3.04545 153.687 2.71053C153.823 2.44258 154.094 2.17464 154.366 2.04067C154.638 1.9067 154.978 1.77273 155.385 1.77273C155.929 1.77273 156.404 1.97368 156.744 2.30861C157.084 2.64354 157.288 3.11244 157.288 3.64833C157.288 4.18421 157.084 4.65311 156.744 5.05502C156.404 5.38995 155.929 5.59091 155.385 5.59091C155.046 5.59091 154.706 5.52392 154.434 5.38995C154.094 5.25598 153.891 4.98804 153.755 4.7201C153.483 4.45215 153.415 4.11722 153.415 3.64833ZM154.434 3.71531C154.434 4.05024 154.502 4.38517 154.706 4.51914C154.91 4.7201 155.114 4.78708 155.385 4.78708C155.657 4.78708 155.861 4.7201 155.997 4.51914C156.201 4.31818 156.269 4.05024 156.269 3.64833C156.269 3.3134 156.201 3.04545 155.997 2.8445C155.793 2.64354 155.589 2.57655 155.385 2.57655C155.114 2.57655 154.91 2.64354 154.706 2.8445C154.502 3.04545 154.434 3.38038 154.434 3.71531Z" fill="#0073B8"/>
<path d="M158.986 0.5H158.035V5.52392H158.986V0.5Z" fill="#0073B8"/>
<path d="M160.957 0.5H160.005V5.52392H160.957V0.5Z" fill="#0073B8"/>
<path d="M162.723 2.97847L161.84 2.8445C161.908 2.50957 162.112 2.24163 162.383 2.04067C162.655 1.83971 162.995 1.77273 163.47 1.77273C163.878 1.77273 164.218 1.83971 164.422 1.9067C164.626 2.04067 164.761 2.10766 164.897 2.30861C164.965 2.44258 165.033 2.77751 165.033 3.17943V4.31818C165.033 4.65311 165.033 4.85407 165.101 5.05502C165.101 5.18899 165.169 5.38995 165.305 5.52392H164.354C164.354 5.45694 164.286 5.38995 164.286 5.25598C164.286 5.18899 164.286 5.18899 164.218 5.12201C164.082 5.25598 163.878 5.38995 163.674 5.45694C163.47 5.52392 163.267 5.59091 163.063 5.59091C162.655 5.59091 162.383 5.45694 162.18 5.25598C161.84 5.12201 161.704 4.85407 161.704 4.51914C161.704 4.31818 161.772 4.11722 161.84 3.98325C161.908 3.84928 162.112 3.71531 162.247 3.58134C162.451 3.51435 162.655 3.44737 162.995 3.38038C163.47 3.3134 163.742 3.24641 163.946 3.11244V3.04545C163.946 2.8445 163.878 2.71053 163.81 2.64354C163.742 2.57656 163.538 2.50957 163.267 2.50957C163.063 2.50957 162.927 2.50957 162.859 2.64354C162.859 2.71053 162.791 2.8445 162.723 2.97847ZM164.014 3.7823C163.878 3.84928 163.674 3.84928 163.403 3.91627C163.131 3.98325 162.927 4.05024 162.859 4.11722C162.723 4.18421 162.655 4.31818 162.655 4.45215C162.655 4.58612 162.723 4.7201 162.791 4.78708C162.859 4.85407 162.995 4.92105 163.199 4.92105C163.403 4.92105 163.538 4.85407 163.674 4.7201C163.81 4.65311 163.878 4.51914 163.878 4.38517C163.878 4.31818 163.946 4.11722 163.946 3.91627V3.7823H164.014Z" fill="#0073B8"/>
<path d="M165.916 0.5H166.868V2.30861C167.139 1.97368 167.547 1.77273 167.955 1.77273C168.43 1.77273 168.77 1.9067 169.042 2.24163C169.314 2.57655 169.517 3.04545 169.517 3.64833C169.517 4.2512 169.382 4.7201 169.042 5.12201C168.77 5.45694 168.362 5.65789 167.955 5.65789C167.751 5.65789 167.547 5.59091 167.343 5.52392C167.139 5.38995 166.936 5.25598 166.8 5.05502V5.59091H165.916V0.5ZM166.868 3.64833C166.868 4.05024 166.936 4.31818 167.071 4.51914C167.207 4.78708 167.479 4.92105 167.751 4.92105C167.955 4.92105 168.159 4.85407 168.294 4.65311C168.43 4.45215 168.498 4.18421 168.498 3.7823C168.498 3.38038 168.43 3.04545 168.294 2.91148C168.159 2.71053 167.955 2.64354 167.683 2.64354C167.479 2.64354 167.275 2.71053 167.071 2.91148C166.936 2.97847 166.868 3.24641 166.868 3.64833Z" fill="#0073B8"/>
<path d="M170.061 3.64833C170.061 3.3134 170.129 3.04545 170.333 2.71053C170.469 2.44258 170.74 2.17464 171.012 2.04067C171.284 1.9067 171.624 1.77273 172.031 1.77273C172.575 1.77273 173.05 1.97368 173.39 2.30861C173.73 2.64354 173.934 3.11244 173.934 3.64833C173.934 4.18421 173.73 4.65311 173.39 5.05502C173.05 5.38995 172.575 5.59091 172.031 5.59091C171.692 5.59091 171.352 5.52392 171.08 5.38995C170.74 5.25598 170.537 4.98804 170.401 4.7201C170.197 4.45215 170.061 4.11722 170.061 3.64833ZM171.08 3.71531C171.08 4.05024 171.148 4.38517 171.352 4.51914C171.556 4.7201 171.76 4.78708 172.031 4.78708C172.303 4.78708 172.507 4.7201 172.643 4.51914C172.847 4.31818 172.915 4.05024 172.915 3.64833C172.915 3.3134 172.847 3.04545 172.643 2.8445C172.439 2.64354 172.235 2.57655 172.031 2.57655C171.76 2.57655 171.556 2.64354 171.352 2.8445C171.216 3.04545 171.08 3.38038 171.08 3.71531Z" fill="#0073B8"/>
<path d="M175.632 5.52392H174.613V1.9067H175.496V2.44258C175.632 2.17464 175.768 2.04067 175.904 1.97368C176.04 1.9067 176.176 1.83971 176.312 1.83971C176.516 1.83971 176.719 1.9067 176.923 2.04067L176.651 2.91148C176.516 2.77751 176.312 2.77751 176.176 2.77751C176.04 2.77751 175.904 2.8445 175.836 2.91148C175.768 2.97847 175.632 3.11244 175.632 3.3134C175.564 3.51435 175.564 3.91627 175.564 4.51914V5.52392H175.632Z" fill="#0073B8"/>
<path d="M178.214 2.97847L177.331 2.8445C177.399 2.50957 177.603 2.24163 177.874 2.04067C178.146 1.83971 178.486 1.77273 178.961 1.77273C179.369 1.77273 179.709 1.83971 179.913 1.9067C180.116 2.04067 180.252 2.10766 180.388 2.30861C180.456 2.44258 180.524 2.77751 180.524 3.17943V4.31818C180.524 4.65311 180.524 4.85407 180.592 5.05502C180.592 5.18899 180.66 5.38995 180.796 5.52392H179.845C179.845 5.45694 179.777 5.38995 179.777 5.25598C179.777 5.18899 179.777 5.18899 179.709 5.12201C179.573 5.25598 179.369 5.38995 179.165 5.45694C178.961 5.52392 178.758 5.59091 178.554 5.59091C178.146 5.59091 177.874 5.45694 177.671 5.25598C177.467 5.05502 177.331 4.78708 177.331 4.45215C177.331 4.2512 177.399 4.05024 177.467 3.91627C177.535 3.7823 177.738 3.64833 177.874 3.51435C178.078 3.44737 178.282 3.38038 178.622 3.3134C179.097 3.24641 179.369 3.17943 179.573 3.04545C179.573 2.8445 179.505 2.71053 179.437 2.64354C179.369 2.57656 179.165 2.50957 178.893 2.50957C178.69 2.50957 178.554 2.50957 178.486 2.64354C178.35 2.71053 178.282 2.8445 178.214 2.97847ZM179.505 3.7823C179.369 3.84928 179.165 3.84928 178.893 3.91627C178.622 3.98325 178.418 4.05024 178.35 4.11722C178.214 4.18421 178.146 4.31818 178.146 4.45215C178.146 4.58612 178.214 4.7201 178.282 4.78708C178.35 4.85407 178.486 4.92105 178.69 4.92105C178.893 4.92105 179.029 4.85407 179.165 4.7201C179.301 4.65311 179.369 4.51914 179.369 4.38517C179.369 4.31818 179.437 4.11722 179.437 3.91627V3.7823H179.505Z" fill="#0073B8"/>
<path d="M183.174 1.9067V2.71053H182.494V4.18421C182.494 4.45215 182.494 4.65311 182.494 4.7201C182.494 4.78708 182.562 4.78708 182.562 4.85407C182.562 4.92105 182.63 4.92105 182.698 4.92105C182.766 4.92105 182.902 4.92105 183.106 4.85407L183.174 5.59091C182.97 5.65789 182.698 5.72488 182.427 5.72488C182.223 5.72488 182.087 5.72488 181.951 5.65789C181.815 5.59091 181.679 5.52392 181.611 5.45694C181.543 5.38995 181.475 5.25598 181.475 5.05502C181.475 4.92105 181.475 4.7201 181.475 4.38517V2.64354H181V1.9067H181.475V1.16986L182.427 0.633971V1.9067H183.174Z" fill="#0073B8"/>
<path d="M183.853 0.5H184.805V1.37081H183.853V0.5ZM183.853 1.9067H184.805V5.59091H183.853V1.9067Z" fill="#0073B8"/>
<path d="M185.552 3.64833C185.552 3.3134 185.62 3.04545 185.824 2.71053C185.96 2.44258 186.231 2.17464 186.503 2.04067C186.775 1.9067 187.115 1.83971 187.522 1.83971C188.066 1.83971 188.541 2.04067 188.881 2.3756C189.221 2.71053 189.425 3.17943 189.425 3.71531C189.425 4.2512 189.221 4.7201 188.881 5.12201C188.541 5.45694 188.066 5.65789 187.522 5.65789C187.183 5.65789 186.843 5.59091 186.571 5.45694C186.231 5.32297 186.028 5.05502 185.892 4.78708C185.688 4.45215 185.552 4.11722 185.552 3.64833ZM186.571 3.71531C186.571 4.05024 186.639 4.38517 186.843 4.51914C187.047 4.7201 187.25 4.78708 187.522 4.78708C187.794 4.78708 187.998 4.7201 188.134 4.51914C188.338 4.31818 188.405 4.05024 188.405 3.64833C188.405 3.3134 188.338 3.04545 188.134 2.8445C187.93 2.64354 187.726 2.57655 187.522 2.57655C187.25 2.57655 187.047 2.64354 186.843 2.8445C186.707 3.04545 186.571 3.38038 186.571 3.71531Z" fill="#0073B8"/>
<path d="M192.618 5.52392V3.64833C192.618 3.24641 192.618 2.97847 192.55 2.91148C192.482 2.77751 192.414 2.71053 192.346 2.64354C192.278 2.57656 192.142 2.57655 192.006 2.57655C191.871 2.57655 191.667 2.64354 191.531 2.71053C191.395 2.77751 191.327 2.91148 191.259 3.04545C191.191 3.17943 191.191 3.44737 191.191 3.91627V5.59091H190.24V1.9067H191.123V2.44258C191.463 2.04067 191.871 1.83971 192.346 1.83971C192.55 1.83971 192.754 1.9067 192.958 1.97368C193.161 2.04067 193.297 2.17464 193.365 2.24163C193.433 2.3756 193.501 2.50957 193.569 2.64354C193.637 2.77751 193.637 2.97847 193.637 3.3134V5.52392H192.618Z" fill="#0073B8"/>
<path d="M197.238 5.52392L196.083 1.9067H197.034L197.714 4.31818L198.325 1.9067H199.276L199.888 4.31818L200.635 1.9067H201.586L200.363 5.52392H199.412L198.801 3.17943L198.189 5.52392H197.238Z" fill="#0073B8"/>
<path d="M202.062 0.5H203.013V1.37081H202.062V0.5ZM202.062 1.9067H203.013V5.59091H202.062V1.9067Z" fill="#0073B8"/>
<path d="M205.799 1.9067V2.71053H205.119V4.18421C205.119 4.45215 205.119 4.65311 205.119 4.7201C205.119 4.78708 205.187 4.78708 205.187 4.85407C205.187 4.92105 205.255 4.92105 205.323 4.92105C205.391 4.92105 205.527 4.92105 205.731 4.85407L205.799 5.59091C205.595 5.65789 205.323 5.72488 205.051 5.72488C204.848 5.72488 204.712 5.72488 204.576 5.65789C204.44 5.59091 204.304 5.52392 204.236 5.45694C204.168 5.38995 204.1 5.25598 204.1 5.05502C204.1 4.92105 204.1 4.7201 204.1 4.38517V2.64354H203.625V1.9067H204.1V1.16986L205.051 0.633971V1.9067H205.799Z" fill="#0073B8"/>
<path d="M207.429 0.5V2.3756C207.769 2.04067 208.109 1.83971 208.585 1.83971C208.788 1.83971 208.992 1.9067 209.196 1.97368C209.4 2.04067 209.536 2.17464 209.604 2.30861C209.672 2.44258 209.74 2.57656 209.807 2.71053C209.875 2.8445 209.875 3.11244 209.875 3.44737V5.59091H208.924V3.64833C208.924 3.24641 208.924 3.04545 208.856 2.91148C208.788 2.77751 208.72 2.71053 208.652 2.64354C208.585 2.57656 208.449 2.57655 208.313 2.57655C208.177 2.57655 207.973 2.64354 207.905 2.71053C207.769 2.77751 207.701 2.91148 207.633 3.04545C207.565 3.17943 207.565 3.44737 207.565 3.71531V5.52392H206.614V0.5H207.429Z" fill="#0073B8"/>
<path d="M28.2642 15.9737V13.6962H30.3705V12.7584C30.3705 11.6196 30.914 10.4139 31.4575 9.87799C32.4767 9.00718 33.4279 8.27033 37.0288 8.67225L36.4174 11.4856C36.0097 11.4187 34.7867 11.2177 34.2432 11.8876C34.0394 12.0885 33.8355 12.4904 33.8355 12.9593V13.6962H36.2135V15.9737H33.8355V26.1555H30.3705V15.9737H28.2642Z" fill="#005EA4"/>
<path d="M42.9399 13.6962L43.6872 15.9737H41.1734V21.6675C41.1734 22.2703 41.2413 23.4761 42.6002 23.4761C43.2117 23.4761 44.1628 23.2751 44.1628 23.2751L45.114 26.0215C45.114 26.0215 43.4155 26.4234 41.7169 26.4234C40.6978 26.4234 39.5427 26.2895 38.5236 25.2177C37.9121 24.5478 37.7083 23.4761 37.7083 22.8732V11.6196L41.1734 10.4139V13.6292H42.9399V13.6962Z" fill="#005EA4"/>
<path d="M56.2567 26.1555L54.0146 18.0502L52.1122 24.8158C51.9083 25.6196 51.161 26.1555 50.3456 26.1555H48.2394L44.1628 13.6962H46.4729C47.0164 13.6962 47.4241 14.0311 47.6279 14.5L50.1418 22.1364H50.2098L52.5198 13.6962H54.7619C55.2375 13.6962 55.5772 13.9641 55.7131 14.433L57.8873 22.1364L60.605 13.6962H62.7792C63.3227 13.6962 63.6624 14.1651 63.5266 14.701L60.2653 24.9498C59.9935 25.6866 59.3141 26.2225 58.5667 26.2225H56.2567V26.1555Z" fill="#005EA4"/>
<path d="M80.0367 13.6962H76.5716V26.1555H80.0367V13.6962Z" fill="#005EA4"/>
<path d="M89.209 9.61005H85.7439V12.4234H89.209V9.61005Z" fill="#005EA4"/>
<path d="M89.209 13.6962H85.7439V26.1555H89.209V13.6962Z" fill="#005EA4"/>
<path d="M10.8709 23.2081C10.8709 22.8732 10.8029 22.6053 10.735 22.4043C10.735 22.4713 10.667 22.4713 10.667 22.5383C10.4632 22.8062 10.1235 23.0742 9.78377 23.2081C9.44405 23.3421 9.10434 23.4761 8.69668 23.5431C8.28903 23.61 7.94931 23.61 7.6096 23.61C7.134 23.61 6.59046 23.5431 6.11486 23.4091C5.63926 23.2751 5.2316 23.0742 4.89188 22.8732C4.55217 22.6053 4.2804 22.2703 4.07657 21.8684C3.87274 21.4665 3.73686 20.9976 3.73686 20.3947H0C0 21.4665 0.203828 22.4043 0.611486 23.1411C1.01914 23.945 1.56269 24.5478 2.24211 25.0167C2.92154 25.4856 3.73686 25.8876 4.62011 26.0885C5.36749 26.2895 6.1828 26.4234 6.93017 26.4234C7.88137 26.4234 10.735 25.9545 10.8709 23.2081Z" fill="#005EA4"/>
<path d="M14.0642 18.6531C13.6565 18.0502 13.1809 17.5144 12.5694 17.1794C12.0259 16.7775 11.4144 16.5096 10.8709 16.3756C10.2594 16.1746 9.85171 16.1077 9.512 16.0407C8.42491 15.7727 7.54166 15.5718 6.86223 15.3708C6.1828 15.1699 5.63926 15.0359 5.29954 14.8349C4.95983 14.634 4.68806 14.433 4.55217 14.2321C4.41628 14.0311 4.34834 13.7632 4.34834 13.4282C4.34834 13.0263 4.41629 12.7584 4.62011 12.4904C4.756 12.2225 4.95983 12.0215 5.2316 11.8876C5.50337 11.7536 5.77514 11.6196 6.04691 11.5526C6.38663 11.4856 6.6584 11.4856 6.99811 11.4856C7.47371 11.4856 7.88137 11.5526 8.28903 11.6196C8.69668 11.6866 9.0364 11.8206 9.37611 12.0215C9.71583 12.2225 9.91965 12.4904 10.1235 12.8254C10.3273 13.1603 10.3953 13.5622 10.4632 14.0981H14.2001C14.2001 13.0933 13.9962 12.2225 13.6565 11.5526C13.2489 10.8828 12.7733 10.2799 12.0938 9.811C11.4144 9.3421 10.667 9.00718 9.85171 8.80622C9.0364 8.60526 8.15314 8.47129 7.20194 8.47129C6.38663 8.47129 5.63926 8.60526 4.82394 8.80622C4.00863 9.00718 3.3292 9.3421 2.71771 9.74402C2.10623 10.1459 1.63063 10.7488 1.22297 11.3517C0.815314 12.0215 0.679428 12.7584 0.679428 13.6292C0.679428 14.433 0.815314 15.1029 1.15503 15.6388C1.4268 16.1746 1.83446 16.6435 2.31006 17.0455C2.78566 17.4474 3.3292 17.7153 3.94069 17.9163C4.55217 18.1172 5.16366 18.3182 5.84308 18.5191C6.45457 18.7201 7.134 18.8541 7.74548 18.988C8.35697 19.122 8.90051 19.323 9.37611 19.5239C9.57994 19.5909 9.78377 19.7249 9.9876 19.7919C9.9876 19.7919 10.2594 19.9258 10.5311 20.1938C10.5311 20.1938 10.5311 20.1938 10.5991 20.1938C10.667 20.2608 10.735 20.3278 10.735 20.3947C11.1426 20.8636 11.5503 21.7344 11.4144 23.0742C11.2106 25.0837 9.24023 26.2895 7.47371 26.4234C8.69668 26.4234 9.71583 26.2895 10.5991 26.0215C11.4823 25.7536 12.2297 25.3517 12.8412 24.8828C13.4527 24.4139 13.9283 23.811 14.2001 23.1411C14.5398 22.4713 14.6757 21.7344 14.6757 20.9306C14.6757 20.0598 14.4718 19.256 14.0642 18.6531Z" fill="#005EA4"/>
<path d="M27.8566 17.1794C27.5169 16.3756 27.1092 15.7057 26.5656 15.1029C26.2939 14.8349 25.9542 14.567 25.6145 14.366C25.0709 14.0981 23.8479 13.5622 22.1494 14.366C21.1982 14.7679 20.6546 15.6388 20.3149 16.2416C20.7226 16.0407 21.1982 15.9067 21.8097 15.9067C22.4211 15.9067 22.8967 16.0407 23.3044 16.2416C23.7121 16.4426 24.0518 16.7775 24.2556 17.1124C24.4594 17.5144 24.6633 17.9163 24.7312 18.3852C24.7991 18.8541 24.8671 19.39 24.8671 19.8589C24.8671 20.3277 24.7991 20.8636 24.7312 21.3325C24.6633 21.8014 24.4594 22.2033 24.2556 22.6053C24.0518 23.0072 23.7121 23.2751 23.3044 23.4761C22.8967 23.677 22.4211 23.811 21.8097 23.811C21.1982 23.811 20.7226 23.677 20.3149 23.4761C19.9073 23.2751 19.6355 22.9402 19.3637 22.6053C19.1599 22.2033 18.9561 21.8014 18.8881 21.3325C18.8202 20.8636 18.7522 20.3947 18.7522 19.8589C18.7522 19.39 18.8202 18.8541 18.8881 18.3852C19.024 17.5144 19.4317 16.3086 20.3149 15.2368C21.6738 13.6292 23.8479 13.4952 25.2068 14.0311C25.003 13.8971 24.7312 13.8301 24.5274 13.6962C23.7121 13.3612 22.8288 13.2273 21.8097 13.2273C20.7905 13.2273 19.9073 13.3612 19.0919 13.6962C18.2766 14.0311 17.5972 14.433 17.0537 15.0359C16.5101 15.6388 16.0345 16.3086 15.7627 17.1124C15.423 17.9163 15.2871 18.8541 15.2871 19.7919C15.2871 20.7966 15.423 21.6675 15.7627 22.4713C16.1025 23.2751 16.5101 23.945 17.0537 24.5478C17.5972 25.1507 18.2766 25.5526 19.0919 25.8876C19.9073 26.2225 20.7905 26.3565 21.8097 26.3565C22.8288 26.3565 23.7121 26.2225 24.5274 25.8876C25.3427 25.5526 26.0221 25.1507 26.5656 24.5478C27.1092 23.945 27.5848 23.2751 27.8566 22.4713C28.1963 21.6675 28.3322 20.7966 28.3322 19.7919C28.3322 18.9211 28.1283 17.9833 27.8566 17.1794Z" fill="#005EA4"/>
<path d="M100.352 14.2321C99.7401 13.9641 98.5851 13.7632 97.2262 14.366C96.275 14.7679 95.7315 15.6388 95.3917 16.2416C95.7315 16.0407 96.2071 15.9067 96.7506 15.9067C98.2453 15.9067 99.0607 16.6435 99.3324 18.0502H102.73C102.73 17.6483 102.662 17.2464 102.526 16.9115C102.458 16.5766 102.322 16.2416 102.118 15.9737C101.778 15.3708 101.303 14.9019 100.759 14.5C100.691 14.366 100.555 14.299 100.352 14.2321Z" fill="#005EA4"/>
<path d="M99.4683 21.3325C99.3324 22.1364 99.0607 22.7392 98.653 23.2081C98.1774 23.677 97.5659 23.878 96.7506 23.878C96.2071 23.878 95.7315 23.744 95.3917 23.5431C94.9841 23.2751 94.7123 23.0072 94.5085 22.6053C94.3047 22.2033 94.1008 21.8014 94.0329 21.3325C93.965 20.8636 93.897 20.3947 93.897 19.9258C93.897 19.4569 93.965 19.055 94.0329 18.5861C94.1688 17.7153 94.5085 16.4426 95.4597 15.3038C96.7506 13.8301 98.7209 13.5622 100.08 14.0311C99.7401 13.8971 99.4004 13.6962 98.9927 13.6292C98.3133 13.4282 97.5659 13.3612 96.8186 13.3612C95.7994 13.3612 94.8482 13.5622 94.1008 13.8971C93.2855 14.2321 92.6061 14.701 92.0625 15.3038C91.519 15.9067 91.1114 16.6435 90.7716 17.4474C90.4999 18.2512 90.364 19.189 90.364 20.1268C90.364 21.0646 90.4999 21.9354 90.8396 22.6722C91.1793 23.4761 91.587 24.1459 92.1305 24.6818C92.674 25.2177 93.3535 25.6866 94.1688 26.0215C94.9841 26.3565 95.7994 26.4904 96.7506 26.4904C98.4492 26.4904 99.808 26.0885 100.895 25.2177C101.982 24.3469 102.594 23.0742 102.865 21.3995H99.4683V21.3325Z" fill="#005EA4"/>
<path d="M67.807 16.0407C68.2146 15.7727 68.7581 15.6388 69.4376 15.6388C69.7773 15.6388 70.0491 15.6388 70.3208 15.7057C70.5926 15.7727 70.7964 15.8397 71.0003 15.9737C71.2041 16.1077 71.34 16.2416 71.4759 16.5096C71.6117 16.7775 71.6797 17.0455 71.6797 17.3804C71.6797 17.7153 71.6118 17.9833 71.34 18.1842C71.272 18.2512 71.2041 18.2512 71.2041 18.3182C71.8835 17.9833 73.3103 17.1124 73.3103 15.5048C73.3103 13.8301 71.2041 13.5622 71.0682 13.4952C70.5926 13.4282 70.117 13.4282 69.6414 13.4282C68.962 13.4282 68.2146 13.4952 67.5352 13.6292C66.8558 13.7632 66.2443 13.9641 65.6328 14.299C65.0892 14.634 64.6136 15.0359 64.2739 15.5718C63.9342 16.1077 63.7304 16.7775 63.6624 17.5813H67.1275C67.1955 16.8445 67.3993 16.3756 67.807 16.0407Z" fill="#005EA4"/>
<path d="M70.3888 18.5191C70.4567 18.5191 70.4567 18.5191 70.3888 18.5191V18.5191Z" fill="#005EA4"/>
<path d="M74.6012 15.0359C74.2615 14.634 73.8539 14.299 73.3783 14.0311C73.65 14.7679 73.65 15.6388 73.1065 16.5766C72.563 17.5813 71.5438 18.1172 70.9323 18.3852C70.7964 18.4522 70.6606 18.4522 70.5247 18.5191C70.4567 18.5191 70.3888 18.5861 70.3888 18.5861C69.9811 18.6531 69.5735 18.7871 69.0299 18.7871C68.5543 18.8541 68.0108 18.9211 67.4672 18.988C66.9237 19.055 66.4481 19.189 65.9046 19.323C65.361 19.4569 64.9534 19.6579 64.5457 19.9258C64.138 20.1938 63.7983 20.5957 63.5945 20.9976C63.3227 21.4665 63.1868 22.0694 63.1868 22.7392C63.1868 23.4091 63.3227 23.945 63.5266 24.4139C63.7304 24.8828 64.0701 25.2847 64.4778 25.5526C64.8854 25.8876 65.2931 26.0885 65.8366 26.2225C66.3802 26.3565 66.9237 26.4234 67.5352 26.4234C68.3505 26.4234 69.0979 26.2895 69.8452 26.0885C70.5926 25.8876 71.272 25.4856 71.8156 24.8828V26.0885H75.1448V16.8445C75.1448 16.1077 74.941 15.5048 74.6012 15.0359ZM71.6797 21.3325C71.6797 21.5335 71.6797 21.8014 71.6118 22.1364C71.5438 22.4713 71.4759 22.8062 71.272 23.0742C71.0682 23.4091 70.7964 23.677 70.4567 23.878C70.0491 24.0789 68.4184 24.6818 67.3993 23.878C66.8558 23.4761 66.3122 22.0694 67.3993 21.2655C67.6031 21.1316 67.807 20.9976 68.0787 20.9306C68.3505 20.8636 68.6223 20.7966 68.8261 20.7297C69.0979 20.6627 69.3696 20.6627 69.6414 20.5957C69.9132 20.5957 70.185 20.5287 70.4567 20.4617C70.7285 20.3947 70.9323 20.3278 71.1361 20.2608C71.34 20.1938 71.5438 20.0598 71.6797 19.9258V21.3325Z" fill="#005EA4"/>
<path d="M108.029 16.0407C108.437 15.7727 108.98 15.6388 109.66 15.6388C109.999 15.6388 110.271 15.6388 110.543 15.7057C110.815 15.7727 111.019 15.8397 111.222 15.9737C111.426 16.1077 111.562 16.2416 111.698 16.5096C111.834 16.7775 111.902 17.0455 111.902 17.3804C111.902 17.7153 111.834 17.9833 111.562 18.1842C111.494 18.2512 111.426 18.2512 111.426 18.3182C112.106 17.9833 113.532 17.1124 113.532 15.5048C113.532 13.8301 111.426 13.5622 111.29 13.4952C110.815 13.4282 110.339 13.4282 109.864 13.4282C109.184 13.4282 108.437 13.4952 107.757 13.6292C107.078 13.7632 106.466 13.9641 105.855 14.299C105.311 14.634 104.836 15.0359 104.496 15.5718C104.156 16.1077 103.953 16.7775 103.885 17.5813H107.35C107.418 16.8445 107.689 16.3756 108.029 16.0407Z" fill="#005EA4"/>
<path d="M114.891 15.0359C114.552 14.634 114.144 14.299 113.668 14.0311C113.94 14.7679 113.94 15.6388 113.397 16.5766C112.853 17.5813 111.834 18.1172 111.222 18.3852C111.087 18.4522 110.951 18.4522 110.815 18.5191C110.747 18.5191 110.679 18.5861 110.679 18.5861C110.271 18.6531 109.864 18.7871 109.32 18.7871C108.844 18.8541 108.301 18.9211 107.757 18.988C107.214 19.055 106.738 19.189 106.195 19.323C105.651 19.4569 105.243 19.6579 104.836 19.9258C104.428 20.1938 104.088 20.5957 103.885 20.9976C103.613 21.4665 103.477 22.0694 103.477 22.7392C103.477 23.4091 103.613 23.945 103.817 24.4139C104.02 24.8828 104.36 25.2847 104.768 25.5526C105.176 25.8876 105.583 26.0885 106.127 26.2225C106.67 26.3565 107.214 26.4234 107.825 26.4234C108.641 26.4234 109.388 26.2895 110.135 26.0885C110.883 25.8876 111.562 25.4856 112.106 24.8828V26.0885H115.435V16.8445C115.367 16.1077 115.231 15.5048 114.891 15.0359ZM111.902 21.3325C111.902 21.5335 111.902 21.8014 111.834 22.1364C111.766 22.4713 111.698 22.8062 111.494 23.0742C111.29 23.4091 111.019 23.677 110.679 23.878C110.339 24.0789 108.641 24.6818 107.621 23.878C107.078 23.4761 106.534 22.0694 107.621 21.2655C107.825 21.1316 108.029 20.9976 108.301 20.9306C108.573 20.8636 108.844 20.7966 109.048 20.7297C109.32 20.6627 109.592 20.6627 109.864 20.5957C110.135 20.5957 110.407 20.5287 110.679 20.4617C110.951 20.3947 111.154 20.3278 111.358 20.2608C111.562 20.1938 111.766 20.0598 111.902 19.9258V21.3325Z" fill="#005EA4"/>
<path d="M84.5209 13.8301C84.0453 13.6962 83.4338 13.6292 82.7544 13.7632C81.1917 14.0981 80.3084 15.7727 80.0367 17.0455C79.7649 18.5191 80.0367 19.5239 80.0367 19.5239C80.0367 17.9163 80.852 16.7775 82.4147 16.4426C83.6376 16.1746 84.4529 16.7105 84.4529 16.7105V13.8301H84.5209Z" fill="#005EA4"/>
<path d="M21.1302 32.5191C21.1302 31.4474 21.9455 30.5766 23.1006 30.5766C23.6441 30.5766 24.1197 30.7775 24.3915 31.1124L23.9838 31.6483C23.7121 31.4474 23.4403 31.3134 23.1006 31.3134C22.3532 31.3134 21.8776 31.8493 21.8776 32.5191C21.8776 33.189 22.3532 33.7249 23.1006 33.7249C23.4403 33.7249 23.7121 33.5909 23.9838 33.323L24.4594 33.8588C24.1197 34.1938 23.5762 34.4617 23.1006 34.4617C21.9455 34.4617 21.1302 33.5909 21.1302 32.5191Z" fill="#929397"/>
<path d="M25.3427 32.5191C25.3427 31.4474 26.158 30.5766 27.313 30.5766C28.4001 30.5766 29.2154 31.3804 29.2154 32.5191C29.2154 33.5909 28.4001 34.4617 27.313 34.4617C26.158 34.4617 25.3427 33.5909 25.3427 32.5191ZM28.4681 32.5191C28.4681 31.7823 27.9925 31.2464 27.313 31.2464C26.6336 31.2464 26.158 31.7823 26.158 32.5191C26.158 33.256 26.6336 33.7919 27.313 33.7919C27.9925 33.7919 28.4681 33.189 28.4681 32.5191Z" fill="#929397"/>
<path d="M31.2537 33.7249H32.7484V34.3947H30.4384V30.6435H31.2537V33.7249Z" fill="#929397"/>
<path d="M34.7188 33.7249H36.2815V34.3947H33.9714V30.6435H34.7188V33.7249Z" fill="#929397"/>
<path d="M38.2518 33.7919H39.8145V34.3947H37.4365V30.6435H39.7466V31.2464H38.2518V32.1842H39.6107V32.7871H38.2518V33.7919Z" fill="#929397"/>
<path d="M43.3475 32.5191H44.5026V34.2608H44.3667L44.1628 34.0598C43.8231 34.2608 43.3475 34.3947 42.9399 34.3947C41.7169 34.3947 40.9016 33.5909 40.9016 32.4522C40.9016 31.3804 41.7169 30.5096 42.8719 30.5096C43.4155 30.5096 43.8231 30.7105 44.0949 30.9115L43.6193 31.4474C43.4834 31.3804 43.2796 31.3134 42.9399 31.3134C42.1925 31.3134 41.7848 31.8493 41.7848 32.5191C41.7848 33.256 42.2604 33.7919 43.0758 33.7919C43.3475 33.7919 43.6872 33.7249 43.8911 33.5909V33.122H43.4155V32.5191H43.3475Z" fill="#929397"/>
<path d="M46.6767 33.7919H48.2394V34.3947H45.8614V30.6435H48.1715V31.2464H46.6767V32.1842H47.9676V32.7871H46.6767V33.7919Z" fill="#929397"/>
<path d="M51.3648 32.5191C51.3648 31.4474 52.1801 30.5766 53.3351 30.5766C54.4222 30.5766 55.2375 31.3804 55.2375 32.5191C55.2375 33.5909 54.4222 34.4617 53.3351 34.4617C52.1801 34.4617 51.3648 33.5909 51.3648 32.5191ZM54.4222 32.5191C54.4222 31.7823 53.9466 31.2464 53.2672 31.2464C52.5878 31.2464 52.1122 31.7823 52.1122 32.5191C52.1122 33.256 52.5878 33.7919 53.2672 33.7919C53.9466 33.7919 54.4222 33.189 54.4222 32.5191Z" fill="#929397"/>
<path d="M58.7706 31.3134H57.2758V32.2512H58.5667V32.9211H57.2758V34.3947H56.4605V30.6435H58.7706V31.3134Z" fill="#929397"/>
<path d="M62.7112 30.6435H61.8959V34.3947H62.7112V30.6435Z" fill="#929397"/>
<path d="M66.6519 31.3134H65.6328V34.3947H64.8854V31.3134H63.8663V30.6435H66.6519V31.3134Z" fill="#929397"/>
<path d="M75.6204 33.7919H77.1831V34.3947H74.8051V30.6435H77.1151V31.2464H75.6204V32.1842H76.9792V32.7871H75.6204V33.7919Z" fill="#929397"/>
<path d="M80.3084 32.5191C80.3084 31.4474 81.1237 30.5766 82.2788 30.5766C82.8223 30.5766 83.2979 30.7775 83.5697 31.1124L83.162 31.6483C82.9582 31.4474 82.6864 31.3134 82.3467 31.3134C81.5993 31.3134 81.1237 31.8493 81.1237 32.5191C81.1237 33.189 81.5993 33.7249 82.3467 33.7249C82.6864 33.7249 82.9582 33.5909 83.23 33.323L83.7056 33.8588C83.3659 34.1938 82.8223 34.4617 82.3467 34.4617C81.1237 34.4617 80.3084 33.5909 80.3084 32.5191Z" fill="#929397"/>
<path d="M84.5888 32.5191C84.5888 31.4474 85.4042 30.5766 86.4912 30.5766C87.6463 30.5766 88.3936 31.3804 88.3936 32.5191C88.3936 33.5909 87.5783 34.4617 86.4912 34.4617C85.3362 34.4617 84.5888 33.5909 84.5888 32.5191ZM87.6463 32.5191C87.6463 31.7823 87.1707 31.2464 86.4912 31.2464C85.8118 31.2464 85.3362 31.7823 85.3362 32.5191C85.3362 33.256 85.8118 33.7919 86.4912 33.7919C87.1707 33.7919 87.6463 33.189 87.6463 32.5191Z" fill="#929397"/>
<path d="M93.897 34.3947H93.1496L92.9458 32.1172L92.0625 34.3278H91.4511L90.4999 32.1172L90.364 34.3947H89.6166L89.9563 30.6435H90.6357L91.7908 33.323L92.8779 30.6435H93.5573L93.897 34.3947Z" fill="#929397"/>
<path d="M99.4004 34.3947H98.653L98.5171 32.1172L97.6339 34.3278H96.9544L96.0712 32.1172L95.8674 34.3947H95.1879L95.4597 30.6435H96.2071L97.2941 33.323L98.4492 30.6435H99.1286L99.4004 34.3947Z" fill="#929397"/>
<path d="M101.575 33.7919H103.137V34.3947H100.759V30.6435H103.069V31.2464H101.575V32.1842H102.865V32.7871H101.575V33.7919Z" fill="#929397"/>
<path d="M106.466 34.3947C106.127 33.9928 105.855 33.5239 105.515 32.9211H105.108V34.3947H104.292V30.6435H105.583C106.602 30.6435 107.078 31.0455 107.078 31.7153C107.078 32.1842 106.806 32.5861 106.195 32.7871C106.534 33.3899 106.942 33.8589 107.35 34.3278H106.466V34.3947ZM105.176 31.2464V32.3852H105.651C106.195 32.3852 106.398 32.1172 106.398 31.7823C106.398 31.4474 106.127 31.2464 105.719 31.2464H105.176Z" fill="#929397"/>
<path d="M108.437 32.5191C108.437 31.4474 109.252 30.5766 110.407 30.5766C110.951 30.5766 111.426 30.7775 111.698 31.1124L111.29 31.6483C111.087 31.4474 110.815 31.3134 110.475 31.3134C109.728 31.3134 109.252 31.8493 109.252 32.5191C109.252 33.189 109.728 33.7249 110.475 33.7249C110.815 33.7249 111.087 33.5909 111.358 33.323L111.834 33.8588C111.494 34.1938 110.951 34.4617 110.475 34.4617C109.252 34.4617 108.437 33.5909 108.437 32.5191Z" fill="#929397"/>
<path d="M113.804 33.7919H115.367V34.3947H112.989V30.6435H115.299V31.2464H113.804V32.1842H115.163V32.7871H113.804V33.7919Z" fill="#929397"/>
<path d="M70.6606 34.3278C70.4567 34.3947 70.3208 34.4617 70.0491 34.4617C69.9132 34.4617 69.7094 34.4617 69.5735 34.3947C69.4376 34.3277 69.3017 34.2608 69.1658 34.1938C69.0299 34.1268 68.962 33.9928 68.894 33.8588C68.8261 33.7249 68.8261 33.5909 68.8261 33.3899C68.8261 33.256 68.8261 33.122 68.894 33.055C68.962 32.9211 69.0299 32.8541 69.0979 32.7871C69.1658 32.7201 69.3017 32.6531 69.3696 32.5191C69.5055 32.4521 69.5735 32.3852 69.7094 32.3182C69.5735 32.1842 69.5055 32.0502 69.4376 31.9833C69.3696 31.8493 69.3017 31.7153 69.3017 31.5813C69.3017 31.4474 69.3017 31.3134 69.3696 31.2464C69.4376 31.1124 69.5055 31.0455 69.5735 30.9785C69.6414 30.9115 69.7773 30.8445 69.9132 30.7775C70.0491 30.7105 70.185 30.7105 70.2529 30.7105C70.3888 30.7105 70.5247 30.7105 70.6606 30.7775C70.7964 30.8445 70.8644 30.8445 71.0003 30.9785C71.0682 31.0455 71.1362 31.1124 71.2041 31.2464C71.272 31.3804 71.272 31.5144 71.272 31.6483C71.272 31.8493 71.2041 32.0502 71.0682 32.1842C70.9323 32.3182 70.7964 32.4522 70.5926 32.5861L71.0682 33.189C71.1362 33.122 71.1361 33.055 71.1361 32.988C71.1361 32.9211 71.2041 32.8541 71.2041 32.7871H71.8835C71.8835 32.9211 71.8156 33.122 71.7476 33.256C71.6797 33.39 71.6117 33.5239 71.4759 33.6579L72.2232 34.5287H71.272L70.9323 34.1268C71.0003 34.1938 70.7964 34.2608 70.6606 34.3278ZM69.9132 32.8541C69.8452 32.921 69.7773 32.9211 69.7773 32.988C69.7773 33.055 69.7094 33.122 69.6414 33.189C69.6414 33.256 69.5735 33.323 69.5735 33.3899C69.5735 33.4569 69.5735 33.5239 69.6414 33.5909C69.6414 33.6579 69.7094 33.7249 69.7773 33.7249C69.8452 33.7249 69.9132 33.7919 69.9811 33.8588C70.0491 33.8588 70.117 33.9258 70.185 33.9258C70.3208 33.9258 70.4567 33.9258 70.5247 33.8588C70.5926 33.7919 70.7285 33.7249 70.7964 33.5909L70.117 32.7871C69.9811 32.7871 69.9811 32.7871 69.9132 32.8541ZM70.5926 31.2464C70.5247 31.1794 70.4567 31.1124 70.3208 31.1124C70.185 31.1124 70.117 31.1124 70.0491 31.1794C69.9811 31.2464 69.9811 31.3134 69.9811 31.4474C69.9811 31.5813 69.9811 31.6483 70.0491 31.7823C70.117 31.8493 70.185 31.9833 70.2529 32.0502C70.3888 31.9833 70.4567 31.9163 70.5247 31.8493C70.5926 31.7823 70.6606 31.6483 70.6606 31.5143C70.6606 31.3804 70.6606 31.3134 70.5926 31.2464Z" fill="#929397"/>
<path d="M79.2214 32.1842H78.0663V32.7871H79.2214V32.1842Z" fill="#929397"/>
<path d="M128.819 1.9067H127.868V41.0933H128.819V1.9067Z" fill="#C3C3C3"/>
<path d="M128.819 1.9067H127.868V41.0933H128.819V1.9067Z" fill="#C3C3C3"/>
</svg>