<svg xmlns="http://www.w3.org/2000/svg" width="283" height="48" viewBox="0 0 283 48" fill="none">
<path d="M178.239 17.0718C174.729 17.0718 172.44 19.5981 172.44 23.4258C172.44 27.2536 174.729 29.7799 178.239 29.7799C181.749 29.7799 184.038 27.2536 184.038 23.4258C184.038 19.5981 181.749 17.0718 178.239 17.0718ZM178.239 27.2536C176.179 27.2536 175.492 25.3397 175.492 23.4258C175.492 21.512 176.102 19.5215 178.239 19.5215C180.375 19.5215 180.986 21.4354 180.986 23.4258C180.986 25.3397 180.375 27.2536 178.239 27.2536Z" fill="white"/>
<path d="M191.439 29.4737L195.407 17.378H192.049L189.684 26.2584L187.319 17.378H183.961L187.929 29.4737H191.439Z" fill="white"/>
<path d="M165.802 44.0957C169.922 44.0957 171.372 41.4163 171.372 38.201V29.4737H169.998V37.8947C169.998 41.4928 168.549 42.8708 165.878 42.8708C163.131 42.8708 161.682 41.4928 161.758 37.8947V29.4737H160.232V38.2775C160.232 41.4163 161.682 44.0957 165.802 44.0957Z" fill="white"/>
<path d="M186.327 32.6124H184.953V43.7895H186.327V32.6124Z" fill="white"/>
<path d="M193.728 43.7895L198.077 32.6124H196.551L192.965 42.4115L189.379 32.6124H187.853L192.202 43.7895H193.728Z" fill="white"/>
<path d="M227.148 32.6124H225.774V43.7895H227.148V32.6124Z" fill="white"/>
<path d="M210.743 23.0431C210.743 20.5933 211.43 19.5981 213.108 19.5981C214.558 19.5981 215.092 20.5933 215.092 22.5837V29.5502H218.144V22.1244C218.144 19.1388 217.305 17.1483 214.024 17.1483C212.727 17.1483 211.277 17.8373 210.514 19.1388V17.4545H207.615V29.5502H210.743V23.0431Z" fill="white"/>
<path d="M223.256 14.3923L220.128 15.4641V17.378H218.984V19.5981H220.128V25.8756C220.128 28.7847 221.73 29.6268 223.638 29.6268C224.172 29.6268 224.782 29.6268 225.317 29.5502V26.9474C225.011 27.0239 224.782 27.0239 224.477 27.0239C223.409 27.0239 223.18 26.7177 223.18 24.4976V19.6746H225.317V17.4545H223.18V14.3923H223.256Z" fill="white"/>
<path d="M174.882 43.7895V37.2823C174.958 35.0622 176.255 33.4545 178.391 33.4545C180.604 33.4545 181.215 34.9091 181.215 36.823V43.7895H182.588V36.5933C182.588 33.9139 181.444 32.3062 178.468 32.3062C176.942 32.3062 175.263 33.3014 174.729 34.6029V32.6124H173.432V43.7895H174.882Z" fill="white"/>
<path d="M211.659 43.7895V37.8182C211.659 35.5215 213.185 33.6077 215.855 33.6077V32.2297C213.719 32.2297 212.269 33.378 211.582 35.2153V32.6124H210.285V43.7895H211.659Z" fill="white"/>
<path d="M217.839 35.2153C217.839 33.7608 219.136 33.378 220.662 33.378C221.501 33.378 222.57 33.6077 223.409 34.067V32.7655C222.341 32.4593 221.12 32.3062 220.51 32.3062C218.449 32.3062 216.466 33.0718 216.466 35.2919C216.466 38.8899 222.646 38.201 222.646 40.9569C222.646 42.4115 221.12 43.0239 219.67 43.0239C218.526 43.0239 217.381 42.7177 216.466 42.2584V43.6364C217.534 44.0191 218.678 44.0957 219.747 44.0957C221.578 44.0957 224.019 43.2536 224.019 40.8804C224.019 37.0526 217.839 37.4354 217.839 35.2153Z" fill="white"/>
<path d="M239.89 43.7895C238.822 46.3923 237.525 47.7703 235.922 48L235.465 46.9282C237.143 46.6986 237.982 45.0909 238.517 43.7895H237.754L233.786 33.6842H231.497V40.5742C231.497 41.799 231.573 42.7943 232.489 42.7943C232.718 42.7943 233.176 42.7943 233.557 42.7943V43.9426C233.176 43.9426 232.718 43.9426 232.413 43.9426C230.658 43.9426 230.047 42.7943 230.047 40.6507V33.7608H228.597V32.689H230.047V30.2392H231.421V32.689H234.854L238.822 42.8708L242.866 32.6124H244.392L239.89 43.7895Z" fill="white"/>
<path d="M241.187 17.378L238.364 26.1818L235.465 17.378H232.87C230.734 17.378 229.895 18.6029 229.513 19.5981V17.378H226.614V29.4737H229.742V24.0383C229.742 21.3589 230.81 20.134 233.023 20.0574L236.228 29.3971H237.448C236.991 30.8517 236.685 31.5407 235.999 32L236.991 34.6029C238.517 34.1435 239.737 31.6172 240.348 29.7799L244.468 17.2249H241.187V17.378Z" fill="white"/>
<path d="M169.159 24.4976C168.701 25.9522 167.633 26.9474 166.031 26.9474C163.131 26.9474 161.987 24.3445 161.987 21.7416C161.987 19.0622 163.055 16.4593 166.031 16.4593C167.557 16.4593 168.93 17.5311 169.235 18.9856L172.211 17.9904C171.372 15.1579 168.93 13.6268 166.107 13.6268C161.529 13.6268 158.858 17.2249 158.858 21.8182C158.858 26.2584 161.529 29.8565 166.107 29.8565C169.006 29.8565 171.295 28.2488 172.211 25.5694L169.159 24.4976Z" fill="white"/>
<path d="M203.342 26.0287C202.96 26.6411 202.121 27.2536 201.053 27.2536C199.298 27.2536 198.382 26.3349 198.306 24.1914H206.394C206.623 20.5167 204.792 16.9952 200.9 16.9952C197.467 16.9952 195.178 19.7512 195.178 23.3493C195.178 27.1005 197.39 29.7034 200.9 29.7034C203.037 29.7034 204.715 28.7847 205.707 26.7943L203.342 26.0287ZM200.824 19.5215C202.35 19.5215 203.037 20.4402 203.266 22.1244H198.23C198.306 21.2057 198.916 19.5215 200.824 19.5215Z" fill="white"/>
<path d="M206.623 40.8804C206.089 42.1818 205.02 42.9474 203.342 42.9474C200.671 42.9474 199.679 40.5742 199.603 38.5837H208.301C208.378 35.445 207.004 32.3062 203.342 32.3062C199.756 32.3062 198.23 35.2919 198.23 38.201C198.23 41.4163 199.756 44.0957 203.342 44.0957C205.707 44.0957 207.081 43.1005 207.844 41.2632L206.623 40.8804ZM203.418 33.4545C205.631 33.4545 206.928 35.3684 207.004 37.4354H199.756C199.908 35.3684 201.129 33.4545 203.418 33.4545Z" fill="white"/>
<path d="M279.109 31.4641C279.872 29.3971 279.795 29.244 280.024 28.1722C282.466 26.8708 283 23.7321 283 23.4258C282.924 22.5072 283 23.0431 282.924 23.3493C282.618 24.2679 281.779 25.3397 281.016 25.9522C280.787 26.1053 280.558 26.2584 280.329 26.4115C280.406 25.5694 281.321 20.134 279.185 15.9234C279.872 17.9904 278.956 20.3636 277.659 21.8947C277.659 21.5885 277.125 16.1531 274.76 13.3971L274.531 13.1675C274.912 13.7799 275.37 17.0718 273.386 20.2871C272.394 21.7416 271.097 23.0431 269.953 24.3445C268.884 25.7225 268.35 27.0239 268.884 29.3971C269.037 30.0096 269.342 31.0048 269.647 31.2344C269.8 31.311 269.8 31.0813 269.724 30.9282C269.418 30.3158 268.961 27.7895 271.784 24.5742C276.514 19.1388 275.217 14.3923 275.217 14.3923C275.98 15.1579 277.201 19.6746 277.354 22.1244C275.904 23.8086 270.639 27.5598 271.402 30.5455C271.479 30.9282 271.631 31.311 271.86 31.6172C271.173 32.7655 270.944 33.5311 271.326 34.6794C270.258 35.5215 269.113 36.6699 268.655 38.0478C267.816 38.3541 266.977 38.7368 266.29 39.4258C265.985 39.1196 265.756 38.8134 265.451 38.5837C265.68 38.4306 267.816 37.3589 268.579 36.4402C269.418 35.5981 269.876 34.4498 269.571 33.1483C269.037 30.9282 264.001 27.9426 265.069 26.6411C265.603 25.9522 266.901 25.6459 267.587 26.1053C267.664 26.1053 267.74 26.1818 267.74 26.2584C268.045 25.799 268.427 24.4976 266.443 24.5742C266.29 24.1914 265.832 24.0383 265.374 23.9617C264.154 23.8852 262.933 24.4211 262.475 25.4928C261.865 26.8708 263.62 29.8565 263.467 31.7703C263.543 33.4545 260.186 34.5263 260.262 31.9234C260.262 30.7751 263.009 27.6364 260.491 23.9617C259.576 22.7368 258.431 21.5885 257.516 20.3636C254.082 16 256.142 12.7847 256.066 12.7847C252.709 17.0718 253.548 20.5933 253.395 20.4402C253.166 20.0574 251.335 17.8373 252.251 14.9282C252.251 14.9282 250.191 17.5311 250.572 24.9569C250.191 24.7273 248.054 22.8134 248.131 21.3589C248.131 21.3589 247.596 24.5742 250.648 26.8708C250.877 28.0191 250.954 29.0144 251.335 30.2392C250.191 29.8565 248.359 28.4785 247.749 27.177C247.673 26.9474 248.13 30.0861 251.717 31.9234C254.616 36.8995 257.897 35.5981 258.584 34.9091C259.499 35.2919 260.873 37.2823 260.949 37.512C259.042 36.8995 255.913 36.2105 253.472 36.134C252.098 34.756 249.046 31.8469 247.749 33.3014C246.376 35.0622 251.183 37.1292 253.777 37.4354C254.463 38.1244 255.455 39.1196 256.142 39.9617C255.379 40.1148 255.226 40.1914 254.158 40.5742C250.496 37.5885 249.962 39.6555 249.962 39.6555C249.428 42.1053 254.082 41.9522 254.616 41.799C255.989 43.177 257.973 43.3301 258.889 43.0239C260.339 44.3254 261.788 44.2488 262.246 44.1722C263.772 47.6938 266.443 46.0096 267.053 44.3254C268.427 44.7081 269.495 44.1722 270.487 43.4067C271.173 43.6364 273.081 43.9426 274.836 42.488C279.338 43.3301 279.795 40.9569 279.643 40.4976C278.956 39.1196 276.209 40.6507 275.446 41.3397C274.683 41.0335 274.302 40.8038 273.539 40.5742C274.302 39.7321 275.217 38.9665 276.057 38.201C285.213 37.512 283.687 30.1627 276.514 36.9761C274.378 36.9761 271.173 37.2057 268.961 37.8182C268.961 37.6651 270.334 35.8278 271.555 35.3684C273.768 37.3589 277.125 35.3684 278.575 32.8421C280.787 32 282.237 30.3923 282.771 28.7081L282.847 28.4019C282.466 29.4737 280.864 31.0048 279.109 31.4641ZM248.054 33.6077C248.97 32.3062 251.946 35.1388 252.861 36.2105C252.327 36.134 247.215 35.0622 248.054 33.6077ZM250.191 39.8852C250.42 38.4306 253.243 40.1914 253.853 40.8038C252.937 41.2632 250.267 41.2632 250.191 39.8852ZM279.566 40.8804C279.719 41.4163 278.04 42.7177 275.904 41.6459C277.964 40.1148 279.414 40.1148 279.566 40.8804ZM282.084 34.756C283 35.9809 278.956 37.1292 277.125 37.1292C277.201 37.1292 280.864 33.5311 282.084 34.756ZM268.35 38.89C268.274 39.3493 268.274 39.5789 268.274 40.3445C267.816 40.4976 267.358 40.5742 266.977 40.8804C266.824 40.4976 266.595 40.1148 266.366 39.8086C266.366 39.8086 267.358 39.1196 268.35 38.89ZM253.548 23.3493C254.311 24.5742 259.576 28.555 258.507 30.9282C257.21 29.0909 254.006 27.4067 253.853 27.2536C253.624 26.0287 253.548 24.6507 253.548 23.3493ZM258.05 31.4641C257.897 31.6172 255.303 32.7655 254.235 29.3206C255.455 29.8565 257.058 30.5455 258.05 31.4641ZM251.564 17.4545C251.488 18.2201 251.564 20.0574 253.243 22.89C253.166 24.2679 253.243 25.6459 253.472 26.9474C252.556 26.488 251.793 25.9522 250.954 25.4163C250.801 24.2679 250.954 18.6794 251.564 17.4545ZM252.251 32.3062C253.624 32.7656 257.821 34.756 258.202 34.9091C257.744 35.3684 254.998 36.3636 252.251 32.3062ZM258.736 34.067C257.058 32.8421 254.387 31.5407 251.717 30.5455C251.488 29.933 251.03 27.6364 251.03 27.2536C251.793 27.866 252.937 28.555 253.853 29.0144C255.074 32.9952 257.668 31.9234 258.279 31.5407C258.889 32.3062 259.042 33.1483 258.736 34.067ZM258.965 34.2966C259.423 33.1483 259.194 32.3062 258.66 31.2344C260.339 29.0144 258.202 26.0287 256.676 24.4976C255.913 23.6555 254.006 21.5885 253.853 21.3589C253.472 17.8373 255.226 14.6986 255.379 14.3923C254.54 16.2297 254.082 18.8325 258.965 24.8038C259.805 25.8756 261.025 27.1005 260.949 28.6316C260.949 30.0096 259.805 31.1579 259.957 32.4593C260.11 33.3014 260.568 33.9904 261.483 34.2201C262.475 34.3732 263.238 34.1435 263.848 33.4545C265.832 30.9282 262.78 29.0144 262.78 26.488C262.78 25.4928 263.314 24.9569 264.154 24.6507C264.764 24.4976 265.527 24.2679 265.985 24.8038C265.832 24.8038 265.451 24.8804 265.069 25.11C264.993 25.0335 264.917 24.9569 264.84 24.9569C264.688 24.9569 264.535 25.11 264.535 25.2632C264.535 25.3397 264.535 25.3397 264.535 25.4163C264.611 25.4928 264.688 25.6459 264.84 25.5694C264.917 25.5694 264.993 25.4928 265.069 25.4928C265.451 25.2632 265.909 25.1866 266.137 25.11C267.969 24.9569 267.435 25.9522 267.435 25.9522C267.435 25.9522 265.985 25.1866 264.611 26.488C262.551 28.7847 272.013 33.3014 264.917 38.4306C264.611 38.201 263.696 37.5885 263.085 37.2823C263.009 37.3589 263.009 37.4354 262.933 37.4354C263.543 37.7416 264.154 38.1244 264.611 38.5072C264.154 38.8134 263.925 39.0431 263.62 39.3493C263.009 38.7368 262.246 38.201 261.331 37.8182C260.949 36.4402 260.033 35.2919 258.965 34.2966ZM261.483 38.5837C262.17 38.7368 262.857 39.2727 263.467 39.6555C263.085 40.0383 263.009 40.2679 262.78 40.6507C262.399 40.3445 262.17 40.2679 261.483 40.0383C261.559 39.5789 261.559 39.0431 261.483 38.5837ZM254.387 37.6651C255.913 37.8182 260.11 38.1244 261.102 38.5072C261.254 38.9665 261.254 39.5789 261.178 39.9617C259.728 39.5789 257.973 39.5789 256.524 39.9617C256.524 39.9617 255.074 38.3541 254.387 37.6651ZM255.074 41.8756C255.226 41.8756 256.524 41.5694 257.134 41.4163C257.592 41.8756 258.202 42.4115 258.66 42.8708C258.736 42.8708 256.524 43.2536 255.074 41.8756ZM257.516 41.3397C258.66 41.0335 259.881 40.5742 261.102 40.5742C261.102 40.7273 260.11 42.3349 259.042 42.7943C258.507 42.3349 257.516 41.3397 257.516 41.3397ZM262.322 43.9426C261.178 44.0957 260.033 43.5598 259.27 42.9474C260.873 42.0287 261.331 40.6507 261.483 40.5742C261.941 40.6507 262.322 40.8038 262.704 40.9569C262.246 41.7225 261.941 42.9474 262.322 43.9426ZM262.857 41.1866C264.23 42.488 263.085 43.5598 262.704 43.866C262.704 43.866 262.322 42.5646 262.857 41.1866ZM262.857 44.0957C264.688 42.7177 263.696 41.4928 263.009 40.8804C263.162 40.5742 263.314 40.2679 263.696 39.9617C264.077 40.3445 264.23 40.8804 264.306 41.4163C264.383 41.4163 264.383 41.4163 264.535 41.4163C264.535 40.8038 264.306 40.1148 263.925 39.6555C264.154 39.4258 264.84 38.89 264.993 38.8134C265.298 39.1196 265.603 39.3493 265.909 39.7321C265.909 39.7321 265.146 40.4976 265.146 41.4163H265.374C265.451 40.9569 265.451 40.6507 266.061 39.9617C266.29 40.2679 266.519 40.5742 266.672 40.9569C266.29 41.2632 264.688 42.6412 266.672 44.1722C264.611 47.3876 262.857 44.2488 262.857 44.0957ZM266.824 44.0191C265.222 42.6411 266.672 41.4928 266.824 41.3397C267.053 42.1053 267.053 43.2536 266.824 44.0191ZM267.206 44.1722C267.511 43.2536 267.511 42.1818 267.129 41.1866C267.206 41.1866 267.969 40.8804 268.35 40.8804C269.037 42.7177 270.258 43.3301 270.41 43.4067C269.495 44.0957 268.274 44.4785 267.206 44.1722ZM270.563 43.2536C270.563 43.2536 269.266 42.5646 268.655 40.8804C269.8 40.9569 271.097 41.5694 272.165 41.8756C272.165 41.8756 271.021 42.7943 270.563 43.2536ZM274.531 42.5646C273.768 43.2536 272.242 43.7129 270.792 43.3301L272.47 42.0287C273.157 42.2584 273.844 42.4115 274.531 42.5646ZM275.523 38.4306C274.836 39.1196 273.92 39.8852 273.233 40.6507C271.784 40.1914 270.105 40.0383 268.579 40.2679C268.579 39.7321 268.579 39.2727 268.808 38.8134C270.868 38.3541 273.31 38.5072 275.523 38.4306ZM277.735 23.8086C278.117 23.3493 278.88 21.9713 279.032 21.6651C279.643 20.2105 279.643 18.6029 279.643 17.9904C279.872 18.6029 279.948 19.2919 280.024 19.9809C280.329 22.1244 280.177 24.3445 279.872 26.5646C279.032 27.1005 278.117 27.4833 277.201 27.9426C277.583 26.5646 277.812 25.2632 277.735 23.8086ZM277.43 24.1914C277.354 25.5694 277.201 26.7943 276.82 28.0191C276.362 28.3254 272.776 30.0861 271.936 31.4641C271.097 28.8612 276.057 25.9522 277.43 24.1914ZM276.362 30.0861C276.057 30.8517 275.523 31.6938 274.836 32.0766C274.149 32.5359 273.005 32.4593 272.318 32C273.386 31.1579 275.065 30.622 276.362 30.0861ZM271.936 35.445C273.768 34.6794 276.209 33.8373 278.04 33.2249C277.277 34.6029 274.073 37.2057 271.936 35.445ZM278.575 31.6172C276.82 32.1531 275.065 32.7655 273.386 33.5311C272.699 33.8373 272.089 34.2201 271.479 34.6029C271.25 33.6842 271.479 32.689 272.165 32.1531C272.699 32.5359 273.31 32.7655 274.073 32.6124C275.446 32.4593 276.286 31.1579 276.82 29.8565C277.812 29.3971 278.803 28.9378 279.719 28.3254C279.566 29.3971 279.185 30.4689 278.803 31.4641C278.727 31.6172 278.727 31.6172 278.575 31.6172Z" fill="white"/>
<path d="M158.706 0H159.774V0.995215H158.706V0ZM158.706 1.60766H159.774V5.81818H158.706V1.60766Z" fill="white"/>
<path d="M163.665 5.74163V3.59809C163.665 3.13876 163.665 2.83254 163.589 2.75598C163.513 2.60287 163.437 2.52632 163.36 2.44976C163.284 2.37321 163.131 2.37321 162.979 2.37321C162.826 2.37321 162.597 2.44976 162.445 2.52632C162.292 2.60287 162.216 2.75598 162.139 2.90909C162.063 3.0622 162.063 3.36842 162.063 3.90431V5.81818H160.995V1.60766H161.987V2.2201C162.368 1.76077 162.826 1.5311 163.36 1.5311C163.589 1.5311 163.818 1.60766 164.047 1.68421C164.276 1.76077 164.428 1.91388 164.505 1.99043C164.581 2.14354 164.657 2.29665 164.734 2.44976C164.81 2.60287 164.81 2.83254 164.81 3.21531V5.74163H163.665Z" fill="white"/>
<path d="M171.677 2.83254L170.609 3.0622C170.609 2.83254 170.456 2.67943 170.38 2.60287C170.227 2.52632 170.075 2.44976 169.846 2.44976C169.541 2.44976 169.388 2.52632 169.159 2.75598C169.006 2.90909 168.93 3.29187 168.93 3.67464C168.93 4.13397 169.006 4.51675 169.159 4.74641C169.312 4.97608 169.541 5.05263 169.846 5.05263C170.075 5.05263 170.227 4.97608 170.38 4.89952C170.532 4.74641 170.609 4.5933 170.685 4.28708L171.753 4.44019C171.677 4.97608 171.448 5.2823 171.143 5.58852C170.838 5.81818 170.38 5.97129 169.846 5.97129C169.235 5.97129 168.778 5.74163 168.396 5.35885C168.015 4.97608 167.862 4.44019 167.862 3.7512C167.862 3.0622 168.015 2.52632 168.396 2.14354C168.778 1.76077 169.235 1.5311 169.846 1.5311C170.38 1.5311 170.761 1.60766 171.067 1.83732C171.372 2.06699 171.601 2.37321 171.677 2.83254Z" fill="white"/>
<path d="M172.287 3.59809C172.287 3.21531 172.364 2.90909 172.593 2.52632C172.745 2.2201 173.05 1.91388 173.356 1.76077C173.661 1.60766 174.042 1.45455 174.5 1.45455C175.111 1.45455 175.645 1.68421 176.026 2.06699C176.408 2.44976 176.637 2.98565 176.637 3.59809C176.637 4.21053 176.408 4.74641 176.026 5.20574C175.645 5.58852 175.111 5.81818 174.5 5.81818C174.119 5.81818 173.737 5.74163 173.432 5.58852C173.05 5.43541 172.822 5.12919 172.669 4.82297C172.364 4.51675 172.287 4.13397 172.287 3.59809ZM173.432 3.67464C173.432 4.05742 173.508 4.44019 173.737 4.5933C173.966 4.82297 174.195 4.89952 174.5 4.89952C174.805 4.89952 175.034 4.82297 175.187 4.5933C175.416 4.36364 175.492 4.05742 175.492 3.59809C175.492 3.21531 175.416 2.90909 175.187 2.67943C174.958 2.44976 174.729 2.37321 174.5 2.37321C174.195 2.37321 173.966 2.44976 173.737 2.67943C173.508 2.90909 173.432 3.29187 173.432 3.67464Z" fill="white"/>
<path d="M178.544 0H177.476V5.74163H178.544V0Z" fill="white"/>
<path d="M180.757 0H179.689V5.74163H180.757V0Z" fill="white"/>
<path d="M182.741 2.83254L181.749 2.67943C181.825 2.29665 182.054 1.99043 182.359 1.76077C182.664 1.5311 183.046 1.45455 183.58 1.45455C184.038 1.45455 184.419 1.5311 184.648 1.60766C184.877 1.76077 185.03 1.83732 185.182 2.06699C185.259 2.2201 185.335 2.60287 185.335 3.0622V4.36364C185.335 4.74641 185.335 4.97608 185.411 5.20574C185.411 5.35885 185.487 5.58852 185.64 5.74163H184.572C184.572 5.66507 184.496 5.58852 184.496 5.43541C184.496 5.35885 184.496 5.35885 184.419 5.2823C184.267 5.43541 184.038 5.58852 183.809 5.66507C183.58 5.74163 183.351 5.81818 183.122 5.81818C182.664 5.81818 182.359 5.66507 182.13 5.43541C181.749 5.2823 181.596 4.97608 181.596 4.5933C181.596 4.36364 181.672 4.13397 181.749 3.98086C181.825 3.82775 182.054 3.67464 182.207 3.52153C182.435 3.44498 182.664 3.36842 183.046 3.29187C183.58 3.21531 183.885 3.13876 184.114 2.98565V2.90909C184.114 2.67943 184.038 2.52632 183.961 2.44976C183.885 2.37321 183.656 2.29665 183.351 2.29665C183.122 2.29665 182.97 2.29665 182.893 2.44976C182.893 2.52632 182.817 2.67943 182.741 2.83254ZM184.19 3.7512C184.038 3.82775 183.809 3.82775 183.504 3.90431C183.198 3.98086 182.97 4.05742 182.893 4.13397C182.741 4.21053 182.664 4.36364 182.664 4.51675C182.664 4.66986 182.741 4.82297 182.817 4.89952C182.893 4.97608 183.046 5.05263 183.275 5.05263C183.504 5.05263 183.656 4.97608 183.809 4.82297C183.961 4.74641 184.038 4.5933 184.038 4.44019C184.038 4.36364 184.114 4.13397 184.114 3.90431V3.7512H184.19Z" fill="white"/>
<path d="M186.327 0H187.395V2.06699C187.7 1.68421 188.158 1.45455 188.616 1.45455C189.15 1.45455 189.531 1.60766 189.837 1.99043C190.142 2.37321 190.371 2.90909 190.371 3.59809C190.371 4.28708 190.218 4.82297 189.837 5.2823C189.531 5.66507 189.074 5.89474 188.616 5.89474C188.387 5.89474 188.158 5.81818 187.929 5.74163C187.7 5.58852 187.471 5.43541 187.319 5.20574V5.81818H186.327V0ZM187.395 3.59809C187.395 4.05742 187.471 4.36364 187.624 4.5933C187.776 4.89952 188.082 5.05263 188.387 5.05263C188.616 5.05263 188.845 4.97608 188.997 4.74641C189.15 4.51675 189.226 4.21053 189.226 3.7512C189.226 3.29187 189.15 2.90909 188.997 2.75598C188.845 2.52632 188.616 2.44976 188.311 2.44976C188.082 2.44976 187.853 2.52632 187.624 2.75598C187.471 2.83254 187.395 3.13876 187.395 3.59809Z" fill="white"/>
<path d="M190.981 3.59809C190.981 3.21531 191.057 2.90909 191.286 2.52632C191.439 2.2201 191.744 1.91388 192.049 1.76077C192.355 1.60766 192.736 1.45455 193.194 1.45455C193.804 1.45455 194.338 1.68421 194.72 2.06699C195.101 2.44976 195.33 2.98565 195.33 3.59809C195.33 4.21053 195.101 4.74641 194.72 5.20574C194.338 5.58852 193.804 5.81818 193.194 5.81818C192.812 5.81818 192.431 5.74163 192.126 5.58852C191.744 5.43541 191.515 5.12919 191.363 4.82297C191.134 4.51675 190.981 4.13397 190.981 3.59809ZM192.126 3.67464C192.126 4.05742 192.202 4.44019 192.431 4.5933C192.66 4.82297 192.889 4.89952 193.194 4.89952C193.499 4.89952 193.728 4.82297 193.881 4.5933C194.109 4.36364 194.186 4.05742 194.186 3.59809C194.186 3.21531 194.109 2.90909 193.881 2.67943C193.652 2.44976 193.423 2.37321 193.194 2.37321C192.889 2.37321 192.66 2.44976 192.431 2.67943C192.278 2.90909 192.126 3.29187 192.126 3.67464Z" fill="white"/>
<path d="M197.238 5.74163H196.093V1.60766H197.085V2.2201C197.238 1.91388 197.39 1.76077 197.543 1.68421C197.696 1.60766 197.848 1.5311 198.001 1.5311C198.23 1.5311 198.459 1.60766 198.688 1.76077L198.382 2.75598C198.23 2.60287 198.001 2.60287 197.848 2.60287C197.696 2.60287 197.543 2.67943 197.467 2.75598C197.39 2.83254 197.238 2.98565 197.238 3.21531C197.161 3.44498 197.161 3.90431 197.161 4.5933V5.74163H197.238Z" fill="white"/>
<path d="M200.137 2.83254L199.145 2.67943C199.222 2.29665 199.451 1.99043 199.756 1.76077C200.061 1.5311 200.442 1.45455 200.977 1.45455C201.434 1.45455 201.816 1.5311 202.045 1.60766C202.274 1.76077 202.426 1.83732 202.579 2.06699C202.655 2.2201 202.731 2.60287 202.731 3.0622V4.36364C202.731 4.74641 202.731 4.97608 202.808 5.20574C202.808 5.35885 202.884 5.58852 203.037 5.74163H201.968C201.968 5.66507 201.892 5.58852 201.892 5.43541C201.892 5.35885 201.892 5.35885 201.816 5.2823C201.663 5.43541 201.434 5.58852 201.205 5.66507C200.977 5.74163 200.748 5.81818 200.519 5.81818C200.061 5.81818 199.756 5.66507 199.527 5.43541C199.298 5.20574 199.145 4.89952 199.145 4.51675C199.145 4.28708 199.222 4.05742 199.298 3.90431C199.374 3.7512 199.603 3.59809 199.756 3.44498C199.985 3.36842 200.214 3.29187 200.595 3.21531C201.129 3.13876 201.434 3.0622 201.663 2.90909C201.663 2.67943 201.587 2.52632 201.511 2.44976C201.434 2.37321 201.205 2.29665 200.9 2.29665C200.671 2.29665 200.519 2.29665 200.442 2.44976C200.29 2.52632 200.214 2.67943 200.137 2.83254ZM201.587 3.7512C201.434 3.82775 201.205 3.82775 200.9 3.90431C200.595 3.98086 200.366 4.05742 200.29 4.13397C200.137 4.21053 200.061 4.36364 200.061 4.51675C200.061 4.66986 200.137 4.82297 200.214 4.89952C200.29 4.97608 200.442 5.05263 200.671 5.05263C200.9 5.05263 201.053 4.97608 201.205 4.82297C201.358 4.74641 201.434 4.5933 201.434 4.44019C201.434 4.36364 201.511 4.13397 201.511 3.90431V3.7512H201.587Z" fill="white"/>
<path d="M205.707 1.60766V2.52632H204.944V4.21053C204.944 4.51675 204.944 4.74641 204.944 4.82297C204.944 4.89952 205.02 4.89952 205.02 4.97608C205.02 5.05263 205.097 5.05263 205.173 5.05263C205.249 5.05263 205.402 5.05263 205.631 4.97608L205.707 5.81818C205.478 5.89474 205.173 5.97129 204.868 5.97129C204.639 5.97129 204.486 5.97129 204.334 5.89474C204.181 5.81818 204.029 5.74163 203.952 5.66507C203.876 5.58852 203.8 5.43541 203.8 5.20574C203.8 5.05263 203.8 4.82297 203.8 4.44019V2.44976H203.266V1.60766H203.8V0.76555L204.868 0.15311V1.60766H205.707Z" fill="white"/>
<path d="M206.47 0H207.538V0.995215H206.47V0ZM206.47 1.60766H207.538V5.81818H206.47V1.60766Z" fill="white"/>
<path d="M208.378 3.59809C208.378 3.21531 208.454 2.90909 208.683 2.52632C208.836 2.2201 209.141 1.91388 209.446 1.76077C209.751 1.60766 210.133 1.5311 210.59 1.5311C211.201 1.5311 211.735 1.76077 212.116 2.14354C212.498 2.52632 212.727 3.0622 212.727 3.67464C212.727 4.28708 212.498 4.82297 212.116 5.2823C211.735 5.66507 211.201 5.89474 210.59 5.89474C210.209 5.89474 209.827 5.81818 209.522 5.66507C209.141 5.51196 208.912 5.20574 208.759 4.89952C208.53 4.51675 208.378 4.13397 208.378 3.59809ZM209.522 3.67464C209.522 4.05742 209.599 4.44019 209.827 4.5933C210.056 4.82297 210.285 4.89952 210.59 4.89952C210.896 4.89952 211.125 4.82297 211.277 4.5933C211.506 4.36364 211.582 4.05742 211.582 3.59809C211.582 3.21531 211.506 2.90909 211.277 2.67943C211.048 2.44976 210.819 2.37321 210.59 2.37321C210.285 2.37321 210.056 2.44976 209.827 2.67943C209.675 2.90909 209.522 3.29187 209.522 3.67464Z" fill="white"/>
<path d="M216.313 5.74163V3.59809C216.313 3.13876 216.313 2.83254 216.237 2.75598C216.16 2.60287 216.084 2.52632 216.008 2.44976C215.932 2.37321 215.779 2.37321 215.626 2.37321C215.474 2.37321 215.245 2.44976 215.092 2.52632C214.94 2.60287 214.863 2.75598 214.787 2.90909C214.711 3.0622 214.711 3.36842 214.711 3.90431V5.81818H213.642V1.60766H214.634V2.2201C215.016 1.76077 215.474 1.5311 216.008 1.5311C216.237 1.5311 216.466 1.60766 216.695 1.68421C216.923 1.76077 217.076 1.91388 217.152 1.99043C217.229 2.14354 217.305 2.29665 217.381 2.44976C217.458 2.60287 217.458 2.83254 217.458 3.21531V5.74163H216.313Z" fill="white"/>
<path d="M221.501 5.74163L220.204 1.60766H221.273L222.036 4.36364L222.722 1.60766H223.79L224.477 4.36364L225.317 1.60766H226.385L225.011 5.74163H223.943L223.256 3.0622L222.57 5.74163H221.501Z" fill="white"/>
<path d="M226.919 0H227.987V0.995215H226.919V0ZM226.919 1.60766H227.987V5.81818H226.919V1.60766Z" fill="white"/>
<path d="M231.115 1.60766V2.52632H230.352V4.21053C230.352 4.51675 230.352 4.74641 230.352 4.82297C230.352 4.89952 230.429 4.89952 230.429 4.97608C230.429 5.05263 230.505 5.05263 230.581 5.05263C230.658 5.05263 230.81 5.05263 231.039 4.97608L231.115 5.81818C230.886 5.89474 230.581 5.97129 230.276 5.97129C230.047 5.97129 229.895 5.97129 229.742 5.89474C229.589 5.81818 229.437 5.74163 229.36 5.66507C229.284 5.58852 229.208 5.43541 229.208 5.20574C229.208 5.05263 229.208 4.82297 229.208 4.44019V2.44976H228.674V1.60766H229.208V0.76555L230.276 0.15311V1.60766H231.115Z" fill="white"/>
<path d="M232.947 0V2.14354C233.328 1.76077 233.71 1.5311 234.244 1.5311C234.473 1.5311 234.702 1.60766 234.93 1.68421C235.159 1.76077 235.312 1.91388 235.388 2.06699C235.465 2.2201 235.541 2.37321 235.617 2.52632C235.693 2.67943 235.693 2.98565 235.693 3.36842V5.81818H234.625V3.59809C234.625 3.13876 234.625 2.90909 234.549 2.75598C234.473 2.60287 234.396 2.52632 234.32 2.44976C234.244 2.37321 234.091 2.37321 233.939 2.37321C233.786 2.37321 233.557 2.44976 233.481 2.52632C233.328 2.60287 233.252 2.75598 233.176 2.90909C233.099 3.0622 233.099 3.36842 233.099 3.67464V5.74163H232.031V0H232.947Z" fill="white"/>
<path d="M31.7412 17.6842V15.0813H34.1065V14.0096C34.1065 12.7081 34.7169 11.3301 35.3273 10.7177C36.4718 9.72249 37.54 8.88038 41.584 9.33971L40.8973 12.555C40.4395 12.4785 39.0661 12.2488 38.4557 13.0144C38.2267 13.244 37.9978 13.7034 37.9978 14.2392V15.0813H40.6684V17.6842H37.9978V29.3206H34.1065V17.6842H31.7412Z" fill="white"/>
<path d="M48.2222 15.0813L49.0615 17.6842H46.2383V24.1914C46.2383 24.8804 46.3146 26.2584 47.8407 26.2584C48.5274 26.2584 49.5956 26.0287 49.5956 26.0287L50.6638 29.1675C50.6638 29.1675 48.7563 29.6268 46.8487 29.6268C45.7042 29.6268 44.4071 29.4737 43.2626 28.2488C42.5759 27.4833 42.347 26.2584 42.347 25.5694V12.7081L46.2383 11.3301V15.0048H48.2222V15.0813Z" fill="white"/>
<path d="M63.1771 29.3206L60.6592 20.0574L58.5228 27.7895C58.2939 28.7081 57.4546 29.3206 56.539 29.3206H54.1736L49.5956 15.0813H52.1898C52.8002 15.0813 53.258 15.4641 53.4869 16L56.3101 24.7273H56.3864L58.9806 15.0813H61.4985C62.0326 15.0813 62.4141 15.3876 62.5667 15.9234L65.0084 24.7273L68.0604 15.0813H70.502C71.1124 15.0813 71.4939 15.6172 71.3413 16.2297L67.6789 27.9426C67.3737 28.7847 66.6107 29.3971 65.7714 29.3971H63.1771V29.3206Z" fill="white"/>
<path d="M89.8824 15.0813H85.9911V29.3206H89.8824V15.0813Z" fill="white"/>
<path d="M100.183 10.4115H96.2917V13.6268H100.183V10.4115Z" fill="white"/>
<path d="M100.183 15.0813H96.2917V29.3206H100.183V15.0813Z" fill="white"/>
<path d="M12.2081 25.9522C12.2081 25.5694 12.1318 25.2632 12.0555 25.0335C12.0555 25.11 11.9792 25.1101 11.9792 25.1866C11.7503 25.4928 11.3688 25.799 10.9873 25.9522C10.6058 26.1053 10.2243 26.2584 9.76651 26.3349C9.30871 26.4115 8.9272 26.4115 8.5457 26.4115C8.01159 26.4115 7.40119 26.3349 6.86708 26.1818C6.33297 26.0287 5.87517 25.799 5.49366 25.5694C5.11216 25.2632 4.80696 24.8804 4.57805 24.4211C4.34915 23.9617 4.19655 23.4258 4.19655 22.7368H0C0 23.9617 0.228903 25.0335 0.686708 25.8756C1.14451 26.7943 1.75492 27.4833 2.51793 28.0191C3.28094 28.555 4.19655 29.0144 5.18846 29.244C6.02777 29.4737 6.94338 29.6268 7.78269 29.6268C8.8509 29.6268 12.0555 29.0909 12.2081 25.9522Z" fill="white"/>
<path d="M15.7943 20.7464C15.3365 20.0574 14.8024 19.445 14.1157 19.0622C13.5053 18.6029 12.8185 18.2967 12.2081 18.1435C11.5214 17.9139 11.0636 17.8373 10.6821 17.7608C9.46131 17.4545 8.4694 17.2249 7.70639 16.9952C6.94338 16.7656 6.33297 16.6124 5.95147 16.3828C5.56996 16.1531 5.26476 15.9234 5.11216 15.6938C4.95956 15.4641 4.88326 15.1579 4.88326 14.7751C4.88326 14.3158 4.95956 14.0096 5.18846 13.7033C5.34106 13.3971 5.56996 13.1675 5.87517 13.0144C6.18037 12.8612 6.48558 12.7081 6.79078 12.6316C7.17228 12.555 7.47749 12.555 7.85899 12.555C8.3931 12.555 8.8509 12.6316 9.30871 12.7081C9.76651 12.7847 10.148 12.9378 10.5295 13.1675C10.911 13.3971 11.1399 13.7033 11.3688 14.0861C11.5977 14.4689 11.674 14.9282 11.7503 15.5407H15.9469C15.9469 14.3923 15.718 13.3971 15.3365 12.6316C14.8787 11.866 14.3446 11.177 13.5816 10.6411C12.8185 10.1053 11.9792 9.72249 11.0636 9.49282C10.148 9.26316 9.15611 9.11005 8.08789 9.11005C7.17228 9.11005 6.33297 9.26316 5.41736 9.49282C4.50175 9.72249 3.73874 10.1053 3.05204 10.5646C2.36533 11.0239 1.83122 11.7129 1.37342 12.4019C0.915611 13.1675 0.763009 14.0096 0.763009 15.0048C0.763009 15.9234 0.915611 16.689 1.29712 17.3014C1.60232 17.9139 2.06012 18.4498 2.59423 18.9091C3.12834 19.3684 3.73874 19.6746 4.42545 19.9043C5.11216 20.134 5.79887 20.3636 6.56188 20.5933C7.24858 20.823 8.01159 20.9761 8.6983 21.1292C9.38501 21.2823 9.99542 21.512 10.5295 21.7416C10.7584 21.8182 10.9873 21.9713 11.2162 22.0478C11.2162 22.0478 11.5214 22.201 11.8266 22.5072C11.8266 22.5072 11.8266 22.5072 11.9029 22.5072C11.9792 22.5837 12.0555 22.6603 12.0555 22.7368C12.5133 23.2727 12.9712 24.2679 12.8185 25.799C12.5896 28.0957 10.3769 29.4737 8.3931 29.6268C9.76651 29.6268 10.911 29.4737 11.9029 29.1675C12.8949 28.8612 13.7342 28.4019 14.4209 27.866C15.1076 27.3301 15.6417 26.6411 15.9469 25.8756C16.3284 25.11 16.481 24.2679 16.481 23.3493C16.481 22.3541 16.2521 21.4354 15.7943 20.7464Z" fill="white"/>
<path d="M31.2834 19.0622C30.9019 18.1435 30.4441 17.378 29.8336 16.689C29.5284 16.3828 29.1469 16.0766 28.7654 15.8469C28.155 15.5407 26.7816 14.9282 24.8741 15.8469C23.8059 16.3062 23.1955 17.3014 22.814 17.9904C23.2718 17.7608 23.8059 17.6077 24.4926 17.6077C25.1793 17.6077 25.7134 17.7608 26.1712 17.9904C26.629 18.2201 27.0105 18.6029 27.2394 18.9856C27.4683 19.445 27.6972 19.9043 27.7735 20.4402C27.8498 20.9761 27.9261 21.5885 27.9261 22.1244C27.9261 22.6603 27.8498 23.2727 27.7735 23.8086C27.6972 24.3445 27.4683 24.8038 27.2394 25.2632C27.0105 25.7225 26.629 26.0287 26.1712 26.2584C25.7134 26.488 25.1793 26.6411 24.4926 26.6411C23.8059 26.6411 23.2718 26.488 22.814 26.2584C22.3562 26.0287 22.051 25.6459 21.7458 25.2632C21.5169 24.8038 21.2879 24.3445 21.2116 23.8086C21.1353 23.2727 21.059 22.7368 21.059 22.1244C21.059 21.5885 21.1353 20.9761 21.2116 20.4402C21.3642 19.445 21.8221 18.067 22.814 16.8421C24.34 15.0048 26.7816 14.8517 28.3076 15.4641C28.0787 15.311 27.7735 15.2345 27.5446 15.0813C26.629 14.6986 25.6371 14.5455 24.4926 14.5455C23.3481 14.5455 22.3562 14.6986 21.4405 15.0813C20.5249 15.4641 19.7619 15.9234 19.1515 16.6124C18.5411 17.3014 18.007 18.067 17.7018 18.9856C17.3203 19.9043 17.1677 20.9761 17.1677 22.0478C17.1677 23.1962 17.3203 24.1914 17.7018 25.11C18.0833 26.0287 18.5411 26.7943 19.1515 27.4833C19.7619 28.1723 20.5249 28.6316 21.4405 29.0144C22.3562 29.3971 23.3481 29.5502 24.4926 29.5502C25.6371 29.5502 26.629 29.3971 27.5446 29.0144C28.4602 28.6316 29.2232 28.1723 29.8336 27.4833C30.4441 26.7943 30.9782 26.0287 31.2834 25.11C31.6649 24.1914 31.8175 23.1962 31.8175 22.0478C31.8175 21.0526 31.5886 19.9809 31.2834 19.0622Z" fill="white"/>
<path d="M112.696 15.6938C112.01 15.3876 110.713 15.1579 109.187 15.8469C108.118 16.3062 107.508 17.3014 107.126 17.9904C107.508 17.7608 108.042 17.6077 108.652 17.6077C110.331 17.6077 111.247 18.4498 111.552 20.0574H115.367C115.367 19.5981 115.291 19.1388 115.138 18.756C115.062 18.3732 114.909 17.9904 114.68 17.6842C114.299 16.9952 113.765 16.4593 113.154 16C113.078 15.8469 112.925 15.7703 112.696 15.6938Z" fill="white"/>
<path d="M111.704 23.8086C111.552 24.7273 111.247 25.4163 110.789 25.9522C110.255 26.488 109.568 26.7177 108.652 26.7177C108.042 26.7177 107.508 26.5646 107.126 26.3349C106.669 26.0287 106.363 25.7225 106.135 25.2632C105.906 24.8038 105.677 24.3445 105.6 23.8086C105.524 23.2727 105.448 22.7368 105.448 22.201C105.448 21.6651 105.524 21.2057 105.6 20.6699C105.753 19.6746 106.135 18.2201 107.203 16.9187C108.652 15.2345 110.865 14.9282 112.391 15.4641C112.01 15.311 111.628 15.0813 111.17 15.0048C110.407 14.7751 109.568 14.6986 108.729 14.6986C107.584 14.6986 106.516 14.9282 105.677 15.311C104.761 15.6938 103.998 16.2297 103.388 16.9187C102.777 17.6077 102.319 18.4498 101.938 19.3684C101.633 20.2871 101.48 21.3589 101.48 22.4306C101.48 23.5024 101.633 24.4976 102.014 25.3397C102.396 26.2584 102.854 27.0239 103.464 27.6364C104.074 28.2488 104.837 28.7847 105.753 29.1675C106.669 29.5502 107.584 29.7034 108.652 29.7034C110.56 29.7034 112.086 29.244 113.307 28.2488C114.528 27.2536 115.214 25.799 115.52 23.8852H111.704V23.8086Z" fill="white"/>
<path d="M76.1483 17.7608C76.6061 17.4545 77.2165 17.3014 77.9795 17.3014C78.361 17.3014 78.6662 17.3014 78.9714 17.378C79.2766 17.4545 79.5055 17.5311 79.7344 17.6842C79.9633 17.8373 80.1159 17.9904 80.2685 18.2966C80.4211 18.6029 80.4974 18.9091 80.4974 19.2919C80.4974 19.6746 80.4211 19.9809 80.1159 20.2105C80.0396 20.2871 79.9633 20.2871 79.9633 20.3636C80.7263 19.9809 82.3287 18.9856 82.3287 17.1483C82.3287 15.2344 79.9633 14.9282 79.8107 14.8517C79.2766 14.7751 78.7425 14.7751 78.2084 14.7751C77.4454 14.7751 76.6061 14.8517 75.8431 15.0048C75.0801 15.1579 74.3934 15.3876 73.7067 15.7703C73.0963 16.1531 72.5621 16.6124 72.1806 17.2249C71.7991 17.8373 71.5702 18.6029 71.4939 19.5215H75.3853C75.4616 18.6794 75.6905 18.1435 76.1483 17.7608Z" fill="white"/>
<path d="M79.0477 20.5933C79.124 20.5933 79.124 20.5933 79.0477 20.5933V20.5933Z" fill="white"/>
<path d="M83.7784 16.6124C83.3969 16.1531 82.9391 15.7703 82.405 15.4641C82.7102 16.3062 82.7102 17.3014 82.0998 18.3732C81.4893 19.5215 80.3448 20.134 79.6581 20.4402C79.5055 20.5167 79.3529 20.5167 79.2003 20.5933C79.124 20.5933 79.0477 20.6699 79.0477 20.6699C78.5899 20.7464 78.1321 20.8995 77.5217 20.8995C76.9876 20.9761 76.3772 21.0526 75.7668 21.1292C75.1564 21.2057 74.6223 21.3589 74.0119 21.512C73.4015 21.6651 72.9436 21.8947 72.4858 22.201C72.028 22.5072 71.6465 22.9665 71.4176 23.4258C71.1124 23.9617 70.9598 24.6507 70.9598 25.4163C70.9598 26.1818 71.1124 26.7943 71.3413 27.3301C71.5702 27.866 71.9517 28.3254 72.4095 28.6316C72.8673 29.0144 73.3252 29.244 73.9356 29.3971C74.546 29.5502 75.1564 29.6268 75.8431 29.6268C76.7587 29.6268 77.598 29.4737 78.4373 29.244C79.2766 29.0144 80.0396 28.555 80.65 27.866V29.244H84.3888V18.6794C84.3888 17.8373 84.1599 17.1483 83.7784 16.6124ZM80.4974 23.8086C80.4974 24.0383 80.4974 24.3445 80.4211 24.7273C80.3448 25.11 80.2685 25.4928 80.0396 25.799C79.8107 26.1818 79.5055 26.488 79.124 26.7177C78.6662 26.9474 76.835 27.6364 75.6905 26.7177C75.0801 26.2584 74.4697 24.6507 75.6905 23.7321C75.9194 23.5789 76.1483 23.4258 76.4535 23.3493C76.7587 23.2727 77.0639 23.1962 77.2928 23.1196C77.598 23.0431 77.9032 23.0431 78.2084 22.9665C78.5136 22.9665 78.8188 22.89 79.124 22.8134C79.4292 22.7368 79.6581 22.6603 79.887 22.5837C80.1159 22.5072 80.3448 22.3541 80.4974 22.201V23.8086Z" fill="white"/>
<path d="M121.318 17.7608C121.776 17.4545 122.387 17.3014 123.15 17.3014C123.531 17.3014 123.836 17.3014 124.142 17.378C124.447 17.4545 124.676 17.5311 124.905 17.6842C125.133 17.8373 125.286 17.9904 125.439 18.2966C125.591 18.6029 125.668 18.9091 125.668 19.2919C125.668 19.6746 125.591 19.9809 125.286 20.2105C125.21 20.2871 125.133 20.2871 125.133 20.3636C125.896 19.9809 127.499 18.9856 127.499 17.1483C127.499 15.2344 125.133 14.9282 124.981 14.8517C124.447 14.7751 123.913 14.7751 123.379 14.7751C122.616 14.7751 121.776 14.8517 121.013 15.0048C120.25 15.1579 119.563 15.3876 118.877 15.7703C118.266 16.1531 117.732 16.6124 117.351 17.2249C116.969 17.8373 116.74 18.6029 116.664 19.5215H120.555C120.632 18.6794 120.937 18.1435 121.318 17.7608Z" fill="white"/>
<path d="M129.025 16.6124C128.643 16.1531 128.186 15.7703 127.651 15.4641C127.957 16.3062 127.957 17.3014 127.346 18.3732C126.736 19.5215 125.591 20.134 124.905 20.4402C124.752 20.5167 124.599 20.5167 124.447 20.5933C124.37 20.5933 124.294 20.6699 124.294 20.6699C123.836 20.7464 123.379 20.8995 122.768 20.8995C122.234 20.9761 121.624 21.0526 121.013 21.1292C120.403 21.2057 119.869 21.3589 119.258 21.512C118.648 21.6651 118.19 21.8947 117.732 22.201C117.274 22.5072 116.893 22.9665 116.664 23.4258C116.359 23.9617 116.206 24.6507 116.206 25.4163C116.206 26.1818 116.359 26.7943 116.588 27.3301C116.817 27.866 117.198 28.3254 117.656 28.6316C118.114 29.0144 118.572 29.244 119.182 29.3971C119.792 29.5502 120.403 29.6268 121.09 29.6268C122.005 29.6268 122.844 29.4737 123.684 29.244C124.523 29.0144 125.286 28.555 125.896 27.866V29.244H129.635V18.6794C129.559 17.8373 129.406 17.1483 129.025 16.6124ZM125.668 23.8086C125.668 24.0383 125.668 24.3445 125.591 24.7273C125.515 25.11 125.439 25.4928 125.21 25.799C124.981 26.1818 124.676 26.488 124.294 26.7177C123.913 26.9474 122.005 27.6364 120.861 26.7177C120.25 26.2584 119.64 24.6507 120.861 23.7321C121.09 23.5789 121.318 23.4258 121.624 23.3493C121.929 23.2727 122.234 23.1962 122.463 23.1196C122.768 23.0431 123.073 23.0431 123.379 22.9665C123.684 22.9665 123.989 22.89 124.294 22.8134C124.599 22.7368 124.828 22.6603 125.057 22.5837C125.286 22.5072 125.515 22.3541 125.668 22.201V23.8086Z" fill="white"/>
<path d="M94.9183 15.2344C94.3842 15.0813 93.6975 15.0048 92.9345 15.1579C91.1796 15.5407 90.1877 17.4545 89.8824 18.9091C89.5772 20.5933 89.8824 21.7416 89.8824 21.7416C89.8824 19.9043 90.7981 18.6029 92.553 18.2201C93.9264 17.9139 94.842 18.5263 94.842 18.5263V15.2344H94.9183Z" fill="white"/>
<path d="M23.7296 36.5933C23.7296 35.3684 24.6452 34.3732 25.9423 34.3732C26.5527 34.3732 27.0868 34.6029 27.392 34.9856L26.9342 35.5981C26.629 35.3684 26.3238 35.2153 25.9423 35.2153C25.103 35.2153 24.5689 35.8277 24.5689 36.5933C24.5689 37.3588 25.103 37.9713 25.9423 37.9713C26.3238 37.9713 26.629 37.8182 26.9342 37.512L27.4683 38.1244C27.0868 38.5072 26.4764 38.8134 25.9423 38.8134C24.6452 38.8134 23.7296 37.8182 23.7296 36.5933Z" fill="#929397"/>
<path d="M28.4602 36.5933C28.4602 35.3684 29.3758 34.3732 30.673 34.3732C31.8938 34.3732 32.8094 35.2919 32.8094 36.5933C32.8094 37.8182 31.8938 38.8134 30.673 38.8134C29.3758 38.8134 28.4602 37.8182 28.4602 36.5933ZM31.9701 36.5933C31.9701 35.7512 31.436 35.1388 30.673 35.1388C29.9099 35.1388 29.3758 35.7512 29.3758 36.5933C29.3758 37.4354 29.9099 38.0478 30.673 38.0478C31.436 38.0478 31.9701 37.3588 31.9701 36.5933Z" fill="#929397"/>
<path d="M35.0984 37.9713H36.777V38.7368H34.1828V34.4498H35.0984V37.9713Z" fill="#929397"/>
<path d="M38.9898 37.9713H40.7447V38.7368H38.1504V34.4498H38.9898V37.9713Z" fill="#929397"/>
<path d="M42.9574 38.0478H44.7123V38.7368H42.0418V34.4498H44.636V35.1388H42.9574V36.2105H44.4834V36.8995H42.9574V38.0478Z" fill="#929397"/>
<path d="M48.68 36.5933H49.9771V38.5837H49.8245L49.5956 38.3541C49.2141 38.5837 48.68 38.7368 48.2222 38.7368C46.8487 38.7368 45.9331 37.8182 45.9331 36.5168C45.9331 35.2919 46.8487 34.2967 48.1459 34.2967C48.7563 34.2967 49.2141 34.5263 49.5193 34.756L48.9852 35.3684C48.8326 35.2919 48.6037 35.2153 48.2222 35.2153C47.3829 35.2153 46.925 35.8278 46.925 36.5933C46.925 37.4354 47.4592 38.0479 48.3748 38.0479C48.68 38.0479 49.0615 37.9713 49.2904 37.8182V37.2823H48.7563V36.5933H48.68Z" fill="#929397"/>
<path d="M52.4187 38.0478H54.1736V38.7368H51.5031V34.4498H54.0973V35.1388H52.4187V36.2105H53.8684V36.8995H52.4187V38.0478Z" fill="#929397"/>
<path d="M57.6835 36.5933C57.6835 35.3684 58.5991 34.3732 59.8962 34.3732C61.117 34.3732 62.0326 35.2919 62.0326 36.5933C62.0326 37.8182 61.117 38.8134 59.8962 38.8134C58.5991 38.8134 57.6835 37.8182 57.6835 36.5933ZM61.117 36.5933C61.117 35.7512 60.5829 35.1388 59.8199 35.1388C59.0569 35.1388 58.5228 35.7512 58.5228 36.5933C58.5228 37.4354 59.0569 38.0478 59.8199 38.0478C60.5829 38.0478 61.117 37.3588 61.117 36.5933Z" fill="#929397"/>
<path d="M66.0003 35.2153H64.3217V36.2871H65.7714V37.0526H64.3217V38.7368H63.406V34.4498H66.0003V35.2153Z" fill="#929397"/>
<path d="M70.4257 34.4498H69.5101V38.7368H70.4257V34.4498Z" fill="#929397"/>
<path d="M74.8512 35.2153H73.7067V38.7368H72.8673V35.2153H71.7228V34.4498H74.8512V35.2153Z" fill="#929397"/>
<path d="M84.9229 38.0478H86.6778V38.7368H84.0073V34.4498H86.6015V35.1388H84.9229V36.2105H86.4489V36.8995H84.9229V38.0478Z" fill="#929397"/>
<path d="M90.1876 36.5933C90.1876 35.3684 91.1033 34.3732 92.4004 34.3732C93.0108 34.3732 93.5449 34.6029 93.8501 34.9856L93.3923 35.5981C93.1634 35.3684 92.8582 35.2153 92.4767 35.2153C91.6374 35.2153 91.1033 35.8277 91.1033 36.5933C91.1033 37.3588 91.6374 37.9713 92.4767 37.9713C92.8582 37.9713 93.1634 37.8182 93.4686 37.512L94.0027 38.1244C93.6212 38.5072 93.0108 38.8134 92.4767 38.8134C91.1033 38.8134 90.1876 37.8182 90.1876 36.5933Z" fill="#929397"/>
<path d="M94.9946 36.5933C94.9946 35.3684 95.9102 34.3732 97.131 34.3732C98.4281 34.3732 99.2675 35.2919 99.2675 36.5933C99.2675 37.8182 98.3518 38.8134 97.131 38.8134C95.8339 38.8134 94.9946 37.8182 94.9946 36.5933ZM98.4281 36.5933C98.4281 35.7512 97.894 35.1388 97.131 35.1388C96.368 35.1388 95.8339 35.7512 95.8339 36.5933C95.8339 37.4354 96.368 38.0478 97.131 38.0478C97.894 38.0478 98.4281 37.3588 98.4281 36.5933Z" fill="#929397"/>
<path d="M105.448 38.7368H104.609L104.38 36.134L103.388 38.6603H102.701L101.633 36.134L101.48 38.7368H100.641L101.022 34.4498H101.785L103.083 37.512L104.303 34.4498H105.066L105.448 38.7368Z" fill="#929397"/>
<path d="M111.628 38.7368H110.789L110.636 36.134L109.644 38.6603H108.881L107.889 36.134L107.661 38.7368H106.898L107.203 34.4498H108.042L109.263 37.512L110.56 34.4498H111.323L111.628 38.7368Z" fill="#929397"/>
<path d="M114.07 38.0478H115.825V38.7368H113.154V34.4498H115.748V35.1388H114.07V36.2105H115.52V36.8995H114.07V38.0478Z" fill="#929397"/>
<path d="M119.563 38.7368C119.182 38.2775 118.877 37.7416 118.495 37.0526H118.037V38.7368H117.122V34.4498H118.572C119.716 34.4498 120.25 34.9091 120.25 35.6746C120.25 36.2105 119.945 36.6699 119.258 36.8995C119.64 37.5885 120.098 38.1244 120.555 38.6603H119.563V38.7368ZM118.114 35.1388V36.4402H118.648C119.258 36.4402 119.487 36.134 119.487 35.7512C119.487 35.3684 119.182 35.1388 118.724 35.1388H118.114Z" fill="#929397"/>
<path d="M121.776 36.5933C121.776 35.3684 122.692 34.3732 123.989 34.3732C124.599 34.3732 125.133 34.6029 125.439 34.9856L124.981 35.5981C124.752 35.3684 124.447 35.2153 124.065 35.2153C123.226 35.2153 122.692 35.8277 122.692 36.5933C122.692 37.3588 123.226 37.9713 124.065 37.9713C124.447 37.9713 124.752 37.8182 125.057 37.512L125.591 38.1244C125.21 38.5072 124.599 38.8134 124.065 38.8134C122.692 38.8134 121.776 37.8182 121.776 36.5933Z" fill="#929397"/>
<path d="M127.804 38.0478H129.559V38.7368H126.888V34.4498H129.483V35.1388H127.804V36.2105H129.33V36.8995H127.804V38.0478Z" fill="#929397"/>
<path d="M79.3529 38.6603C79.124 38.7368 78.9714 38.8134 78.6662 38.8134C78.5136 38.8134 78.2847 38.8134 78.1321 38.7368C77.9795 38.6603 77.8269 38.5837 77.6743 38.5072C77.5217 38.4306 77.4454 38.2775 77.3691 38.1244C77.2928 37.9713 77.2928 37.8182 77.2928 37.5885C77.2928 37.4354 77.2928 37.2823 77.3691 37.2057C77.4454 37.0526 77.5217 36.9761 77.598 36.8995C77.6743 36.823 77.8269 36.7464 77.9032 36.5933C78.0558 36.5167 78.1321 36.4402 78.2847 36.3636C78.1321 36.2105 78.0558 36.0574 77.9795 35.9809C77.9032 35.8278 77.8269 35.6746 77.8269 35.5215C77.8269 35.3684 77.8269 35.2153 77.9032 35.1388C77.9795 34.9856 78.0558 34.9091 78.1321 34.8325C78.2084 34.756 78.361 34.6794 78.5136 34.6029C78.6662 34.5263 78.8188 34.5263 78.8951 34.5263C79.0477 34.5263 79.2003 34.5263 79.3529 34.6029C79.5055 34.6794 79.5818 34.6794 79.7344 34.8325C79.8107 34.9091 79.887 34.9856 79.9633 35.1388C80.0396 35.2919 80.0396 35.445 80.0396 35.5981C80.0396 35.8278 79.9633 36.0574 79.8107 36.2105C79.6581 36.3636 79.5055 36.5167 79.2766 36.6699L79.8107 37.3588C79.887 37.2823 79.887 37.2057 79.887 37.1292C79.887 37.0526 79.9633 36.9761 79.9633 36.8995H80.7263C80.7263 37.0526 80.65 37.2823 80.5737 37.4354C80.4974 37.5885 80.4211 37.7416 80.2685 37.8947L81.1078 38.8899H80.0396L79.6581 38.4306C79.7344 38.5072 79.5055 38.5837 79.3529 38.6603ZM78.5136 36.9761C78.4373 37.0526 78.361 37.0526 78.361 37.1292C78.361 37.2057 78.2847 37.2823 78.2084 37.3588C78.2084 37.4354 78.1321 37.512 78.1321 37.5885C78.1321 37.6651 78.1321 37.7416 78.2084 37.8182C78.2084 37.8947 78.2847 37.9713 78.361 37.9713C78.4373 37.9713 78.5136 38.0478 78.5899 38.1244C78.6662 38.1244 78.7425 38.201 78.8188 38.201C78.9714 38.201 79.124 38.201 79.2003 38.1244C79.2766 38.0478 79.4292 37.9713 79.5055 37.8182L78.7425 36.8995C78.5899 36.8995 78.5899 36.8995 78.5136 36.9761ZM79.2766 35.1388C79.2003 35.0622 79.124 34.9856 78.9714 34.9856C78.8188 34.9856 78.7425 34.9856 78.6662 35.0622C78.5899 35.1388 78.5899 35.2153 78.5899 35.3684C78.5899 35.5215 78.5899 35.5981 78.6662 35.7512C78.7425 35.8278 78.8188 35.9809 78.8951 36.0574C79.0477 35.9809 79.124 35.9043 79.2003 35.8277C79.2766 35.7512 79.3529 35.5981 79.3529 35.445C79.3529 35.2919 79.3529 35.2153 79.2766 35.1388Z" fill="#929397"/>
<path d="M88.9668 36.2105H87.6697V36.8995H88.9668V36.2105Z" fill="#929397"/>
<path d="M144.666 1.60766H143.598V46.3923H144.666V1.60766Z" fill="white"/>
<path d="M144.666 1.60766H143.598V46.3923H144.666V1.60766Z" fill="white"/>
</svg>